<svg id="Grupo_456" data-name="Grupo 456" xmlns="http://www.w3.org/2000/svg" xmlns:xlink="http://www.w3.org/1999/xlink" width="699.065" height="98.947" viewBox="0 0 699.065 98.947">
  <defs>
    <clipPath id="clip-path">
      <rect id="Rect치ngulo_418" data-name="Rect치ngulo 418" width="699.065" height="98.947" fill="none"/>
    </clipPath>
  </defs>
  <g id="Grupo_454" data-name="Grupo 454" clip-path="url(#clip-path)">
    <path id="Trazado_722" data-name="Trazado 722" d="M239.775,120.562H200.554a14.036,14.036,0,0,1-14.1-14.147v-5.093q0-6.6,1.507-9.211t8.73-9.9q4.144-4.024,8.29-8.11a34.575,34.575,0,0,1,6.532-5.407,16.679,16.679,0,0,1,8.1-1.761h20.159V84.137H226.65V80.055h-4.092a11.4,11.4,0,0,0-5.1,1,19.446,19.446,0,0,0-4.091,3.329q-4.974,4.71-13.03,13.189-.756.88-.755,4.082v4.773a.886.886,0,0,0,1,1h39.191Z" transform="translate(-67.037 -24.063)" fill="#34495e"/>
    <path id="Trazado_723" data-name="Trazado 723" d="M341.043,106.415a13.688,13.688,0,0,1-4.114,10,13.5,13.5,0,0,1-9.954,4.15H301.541a13.52,13.52,0,0,1-9.986-4.118,13.707,13.707,0,0,1-4.082-10.028v-25.4A14.054,14.054,0,0,1,301.541,66.93h25.434a14.108,14.108,0,0,1,14.068,14.085Zm-13.126.017V81.061a.886.886,0,0,0-1-1H301.6a.886.886,0,0,0-1,1v25.371a.885.885,0,0,0,1,1h25.319a.886.886,0,0,0,1-1" transform="translate(-103.355 -24.063)" fill="#34495e"/>
    <path id="Trazado_724" data-name="Trazado 724" d="M442.62,120.5l-12.184.063a4.811,4.811,0,0,1-3.768-1.947,32.3,32.3,0,0,1-2.512-3.705L402.678,80.118H402.3v40.444H389.176V73.72q0-4.087,1.761-5.534,1.572-1.256,5.536-1.256h8.05a12.388,12.388,0,0,1,5.567.911q1.666.911,3.806,4.364l15.6,25.372V66.93H442.62Z" transform="translate(-139.92 -24.063)" fill="#34495e"/>
    <path id="Trazado_725" data-name="Trazado 725" d="M545.613,94.3a20.41,20.41,0,0,1-.314,4.333,10.053,10.053,0,0,1-2.575,3.705l-13.754,14a16.143,16.143,0,0,1-4.4,3.58,20.4,20.4,0,0,1-5.463.439H493.864V107.241H518.42l7.222-7.159h-30.9q-3.956,0-5.9-2.261a6.8,6.8,0,0,1-1.884-4.647,20.018,20.018,0,0,1,.565-4.961,12.729,12.729,0,0,1,2.889-4.082L503.912,70a12.63,12.63,0,0,1,3.391-2.764,12.4,12.4,0,0,1,4.271-.5h26.816V79.859H513.9l-7.222,7.1H537.2q4.333,0,6.217,1.444,2.2,1.7,2.2,5.9" transform="translate(-175.075 -23.993)" fill="#34495e"/>
    <path id="Trazado_726" data-name="Trazado 726" d="M646.874,106.3a14.052,14.052,0,0,1-14.13,14.084H607.434A13.947,13.947,0,0,1,593.367,106.3V66.439h13v39.816q0,1.006,1.068,1h25.309a.888.888,0,0,0,1-1v-39.5h13.126Z" transform="translate(-213.333 -23.887)" fill="#34495e"/>
    <path id="Trazado_727" data-name="Trazado 727" d="M741.177,120.492h-30.9a14.045,14.045,0,0,1-14.131-14.13V66.734h13.126v39.628a.887.887,0,0,0,1,1h30.9Z" transform="translate(-250.286 -23.993)" fill="#34495e"/>
    <path id="Trazado_728" data-name="Trazado 728" d="M826.373,79.859H809.982v40.633H796.857V79.859h-5.589v4.082H778.141V66.859l48.232-.126Z" transform="translate(-279.765 -23.993)" fill="#34495e"/>
    <rect id="Rect치ngulo_417" data-name="Rect치ngulo 417" width="13.126" height="53.632" transform="translate(556.229 42.867)" fill="#34495e"/>
    <path id="Trazado_729" data-name="Trazado 729" d="M962.725,120.5l-12.184.063a4.812,4.812,0,0,1-3.768-1.947,32.179,32.179,0,0,1-2.512-3.705L922.783,80.118h-.377v40.444H909.281V73.72q0-4.087,1.761-5.534,1.572-1.256,5.536-1.256h8.05a12.39,12.39,0,0,1,5.567.911q1.666.911,3.8,4.364l15.6,25.372V66.93h13.126Z" transform="translate(-326.914 -24.063)" fill="#34495e"/>
    <path id="Trazado_730" data-name="Trazado 730" d="M1061.522,87.466v33.1h-39.3a13.545,13.545,0,0,1-10-4.118,13.7,13.7,0,0,1-4.087-10.028v-5.093q0-6.6,1.507-9.274t8.6-9.84l8.227-8.11a32.061,32.061,0,0,1,6.657-5.407,16.678,16.678,0,0,1,8.1-1.761h20.1V84.137h-13.126V80.055h-4.144a11.192,11.192,0,0,0-5.024,1,19.424,19.424,0,0,0-4.082,3.329q-5.087,4.837-12.937,13.126-.753.941-.754,4.145v4.773a.888.888,0,0,0,1,1H1048.4v-6.845h-10.174V87.466Z" transform="translate(-362.457 -24.063)" fill="#34495e"/>
    <path id="Trazado_731" data-name="Trazado 731" d="M15.673,117.627A7.576,7.576,0,0,1,21.1,104.733c.169,0,.34.006.507.018a6.916,6.916,0,0,0,7.29-8.03,9.658,9.658,0,0,1-.129-1.643,9.476,9.476,0,0,1,16.167-6.648l.059.059A9.412,9.412,0,0,1,47.715,95.2a9.751,9.751,0,0,1-.057,1,6.915,6.915,0,0,0,1.583,5.2q.192.229.4.437a6.914,6.914,0,0,0,4.455,2.012,6.033,6.033,0,0,1,3.93,1.777l.042.043a6.138,6.138,0,0,1-8.708,8.651l-.039-.039a6.057,6.057,0,0,1-1.725-3.657,6.917,6.917,0,0,0-1.988-4.171,7.025,7.025,0,0,0-.658-.58,6.919,6.919,0,0,0-5.264-1.368,9.761,9.761,0,0,1-3.034-.022,6.916,6.916,0,0,0-8.032,7.3,7.572,7.572,0,0,1-12.9,5.893Z" transform="translate(-4.854 -30.799)" fill="#44cfcb"/>
    <path id="Trazado_732" data-name="Trazado 732" d="M15.677,117.68l-.047-.047a7.611,7.611,0,0,1,5.447-12.953c.17,0,.341.006.509.018a6.881,6.881,0,0,0,7.254-7.989,9.731,9.731,0,0,1-.129-1.649,9.51,9.51,0,0,1,16.226-6.672l.058.059a9.448,9.448,0,0,1,2.735,6.735,9.791,9.791,0,0,1-.058,1,6.912,6.912,0,0,0,1.576,5.178c.126.15.261.3.4.436a6.872,6.872,0,0,0,4.433,2,6.066,6.066,0,0,1,3.952,1.788l.043.043a6.172,6.172,0,0,1-8.757,8.7l-.04-.04a6.1,6.1,0,0,1-1.735-3.678,6.9,6.9,0,0,0-1.978-4.15,6.831,6.831,0,0,0-.655-.577,6.911,6.911,0,0,0-5.237-1.362,9.779,9.779,0,0,1-3.045-.022,6.881,6.881,0,0,0-7.992,7.26,7.607,7.607,0,0,1-12.961,5.92m0-.1.047.047a7.536,7.536,0,0,0,12.843-5.867,6.95,6.95,0,0,1,8.072-7.332,9.716,9.716,0,0,0,3.023.022,6.951,6.951,0,0,1,7.95,6.15,6.028,6.028,0,0,0,1.715,3.637l.039.039a6.1,6.1,0,0,0,8.659-8.6l-.042-.043a6,6,0,0,0-3.908-1.767,6.946,6.946,0,0,1-4.478-2.021c-.14-.141-.276-.289-.4-.441a6.98,6.98,0,0,1-1.591-5.229,9.668,9.668,0,0,0,.057-1,9.38,9.38,0,0,0-2.715-6.686l-.059-.059A9.441,9.441,0,0,0,28.78,95.06a9.653,9.653,0,0,0,.127,1.636,6.949,6.949,0,0,1-7.326,8.069c-.167-.011-.337-.017-.5-.017a7.547,7.547,0,0,0-5.4,12.835" transform="translate(-4.835 -30.779)" fill="#44cfcb"/>
    <path id="Trazado_733" data-name="Trazado 733" d="M87.072,93.177A9.476,9.476,0,0,1,93.773,77a9.848,9.848,0,0,1,1,.051,6.915,6.915,0,0,0,7.614-6.483A6.137,6.137,0,1,1,109.2,77.02a6.915,6.915,0,0,0-6.069,7.948,9.753,9.753,0,0,1,0,3.035,6.918,6.918,0,0,0,1.741,5.771c.065.07.131.14.2.208a6.914,6.914,0,0,0,5.407,2.006,7.577,7.577,0,1,1-6.979,7.07,6.916,6.916,0,0,0-2.012-5.32q-.133-.133-.273-.259a6.917,6.917,0,0,0-5.793-1.667,9.708,9.708,0,0,1-1.647.14,9.414,9.414,0,0,1-6.7-2.775" transform="translate(-30.307 -23.294)" fill="#44cfcb"/>
    <path id="Trazado_734" data-name="Trazado 734" d="M87.028,93.182a9.51,9.51,0,0,1,6.725-16.235A9.933,9.933,0,0,1,94.76,77a6.881,6.881,0,0,0,7.575-6.451,6.171,6.171,0,1,1,6.849,6.487,6.881,6.881,0,0,0-6.038,7.909,9.8,9.8,0,0,1,0,3.046,6.841,6.841,0,0,0,1.731,5.742c.064.07.131.14.2.207a6.873,6.873,0,0,0,5.381,2,7.611,7.611,0,1,1-7.011,7.1,6.882,6.882,0,0,0-2-5.293c-.088-.088-.179-.174-.272-.257a6.845,6.845,0,0,0-5.764-1.658,9.717,9.717,0,0,1-1.653.141,9.446,9.446,0,0,1-6.724-2.786m25.778-26.59a6.1,6.1,0,0,0-10.4,3.96,6.949,6.949,0,0,1-7.651,6.515,9.615,9.615,0,0,0-1-.051,9.441,9.441,0,0,0,0,18.882,9.706,9.706,0,0,0,1.641-.14,6.911,6.911,0,0,1,5.823,1.675c.094.084.186.171.274.26a6.953,6.953,0,0,1,2.022,5.346A7.542,7.542,0,1,0,110.459,96a6.942,6.942,0,0,1-5.434-2.016c-.069-.069-.136-.138-.2-.209a6.912,6.912,0,0,1-1.749-5.8,9.709,9.709,0,0,0,0-3.024,6.95,6.95,0,0,1,6.1-7.989,6.024,6.024,0,0,0,3.63-1.743,6.11,6.11,0,0,0,0-8.631" transform="translate(-30.288 -23.275)" fill="#44cfcb"/>
    <path id="Trazado_735" data-name="Trazado 735" d="M80.138,47.615a9.415,9.415,0,0,1-2.775-6.7,9.826,9.826,0,0,1,.051-1A6.918,6.918,0,0,0,75.8,34.718c-.12-.141-.245-.277-.375-.407A6.915,6.915,0,0,0,70.931,32.3a6.137,6.137,0,1,1,6.451-6.811,6.915,6.915,0,0,0,7.948,6.069,9.766,9.766,0,0,1,1.509-.117,9.664,9.664,0,0,1,1.526.12,6.916,6.916,0,0,0,7.985-7.347,7.577,7.577,0,1,1,7.07,6.979,6.915,6.915,0,0,0-7.245,8.078,9.7,9.7,0,0,1,.14,1.646,9.476,9.476,0,0,1-16.176,6.7" transform="translate(-23.425 -5.775)" fill="#44cfcb"/>
    <path id="Trazado_736" data-name="Trazado 736" d="M80.094,47.619a9.446,9.446,0,0,1-2.785-6.725,9.92,9.92,0,0,1,.051-1.006,6.913,6.913,0,0,0-1.606-5.167c-.118-.138-.244-.274-.373-.4a6.881,6.881,0,0,0-4.472-2A6.172,6.172,0,1,1,77.4,25.463,6.882,6.882,0,0,0,85.305,31.5a9.6,9.6,0,0,1,1.514-.118,9.826,9.826,0,0,1,1.532.12,6.88,6.88,0,0,0,7.944-7.31,7.612,7.612,0,1,1,7.1,7.011,6.882,6.882,0,0,0-7.209,8.038,9.708,9.708,0,0,1,.141,1.652,9.51,9.51,0,0,1-16.235,6.725M75.43,34.267c.131.131.258.269.377.41A6.978,6.978,0,0,1,77.429,39.9a9.927,9.927,0,0,0-.051,1,9.441,9.441,0,1,0,18.882,0,9.638,9.638,0,0,0-.14-1.64,6.951,6.951,0,0,1,7.281-8.119,7.542,7.542,0,1,0-7.037-6.947,6.951,6.951,0,0,1-8.024,7.385,9.735,9.735,0,0,0-3.024,0,6.982,6.982,0,0,1-5.3-1.342,6.862,6.862,0,0,1-.7-.61,6.969,6.969,0,0,1-1.993-4.147,6.03,6.03,0,0,0-1.744-3.631,6.1,6.1,0,1,0-4.671,10.4,6.941,6.941,0,0,1,4.517,2.024" transform="translate(-23.405 -5.755)" fill="#44cfcb"/>
    <path id="Trazado_737" data-name="Trazado 737" d="M21.763,61.376a6.145,6.145,0,0,1,0-8.68,6.056,6.056,0,0,1,3.651-1.754,6.915,6.915,0,0,0,6.068-7.948,9.8,9.8,0,0,1,0-3.035,6.914,6.914,0,0,0-1.741-5.771q-.1-.107-.2-.208a6.915,6.915,0,0,0-5.407-2.005,7.577,7.577,0,1,1,6.979-7.07,6.916,6.916,0,0,0,2.012,5.32q.133.133.273.259A6.916,6.916,0,0,0,39.2,32.15a9.708,9.708,0,0,1,1.647-.14,9.476,9.476,0,1,1,0,18.951,9.856,9.856,0,0,1-1-.051,6.915,6.915,0,0,0-7.613,6.483,6.132,6.132,0,0,1-10.461,3.982" transform="translate(-5.749 -6.059)" fill="#44cfcb"/>
    <path id="Trazado_738" data-name="Trazado 738" d="M21.72,61.381a6.18,6.18,0,0,1,0-8.729,6.1,6.1,0,0,1,3.671-1.763,6.88,6.88,0,0,0,6.038-7.909,9.834,9.834,0,0,1-.117-1.515,9.736,9.736,0,0,1,.12-1.531A6.843,6.843,0,0,0,29.7,34.192c-.064-.07-.131-.139-.2-.207a6.875,6.875,0,0,0-5.381-2,7.612,7.612,0,1,1,7.01-7.1,6.883,6.883,0,0,0,2,5.293c.088.088.179.175.272.257A6.843,6.843,0,0,0,39.17,32.1a9.775,9.775,0,0,1,1.652-.14,9.51,9.51,0,1,1,0,19.021,9.914,9.914,0,0,1-1.007-.051,6.881,6.881,0,0,0-7.575,6.451,6.166,6.166,0,0,1-10.52,4m7.832-27.445c.068.068.136.138.2.209a6.913,6.913,0,0,1,1.749,5.8,9.735,9.735,0,0,0,0,3.024,6.95,6.95,0,0,1-6.1,7.988,6.028,6.028,0,0,0-3.63,1.743,6.1,6.1,0,1,0,10.4,4.672,6.951,6.951,0,0,1,7.652-6.516,9.783,9.783,0,0,0,1,.051,9.441,9.441,0,1,0,0-18.882,9.633,9.633,0,0,0-1.64.14A6.913,6.913,0,0,1,33.36,30.49c-.094-.084-.186-.172-.275-.26a6.952,6.952,0,0,1-2.021-5.346,7.542,7.542,0,1,0-6.947,7.037,6.943,6.943,0,0,1,5.434,2.016" transform="translate(-5.729 -6.04)" fill="#44cfcb"/>
    <path id="Trazado_739" data-name="Trazado 739" d="M77.259,79.352a6.826,6.826,0,1,1,0-9.654,6.827,6.827,0,0,1,0,9.654" transform="translate(-23.587 -24.34)" fill="#f9564f"/>
    <path id="Trazado_740" data-name="Trazado 740" d="M67.563,79.358a6.861,6.861,0,1,1,9.7,0,6.869,6.869,0,0,1-9.7,0M77.217,69.7a6.791,6.791,0,1,0,0,9.6,6.8,6.8,0,0,0,0-9.6" transform="translate(-23.57 -24.322)" fill="#f9564f"/>
    <path id="Trazado_741" data-name="Trazado 741" d="M53.816,15.094a6.826,6.826,0,1,1,0-9.653,6.825,6.825,0,0,1,0,9.653" transform="translate(-15.159 -1.237)" fill="#f9564f"/>
    <path id="Trazado_742" data-name="Trazado 742" d="M44.12,15.1a6.861,6.861,0,1,1,9.7,0,6.869,6.869,0,0,1-9.7,0m9.654-9.654a6.791,6.791,0,1,0,0,9.6,6.8,6.8,0,0,0,0-9.6" transform="translate(-15.141 -1.22)" fill="#f9564f"/>
    <path id="Trazado_743" data-name="Trazado 743" d="M104.273,11.868a6.826,6.826,0,1,1,0-9.654,6.827,6.827,0,0,1,0,9.654" transform="translate(-33.3 -0.077)" fill="#f9564f"/>
    <path id="Trazado_744" data-name="Trazado 744" d="M94.577,11.875a6.861,6.861,0,1,1,9.7,0,6.869,6.869,0,0,1-9.7,0m9.654-9.654a6.791,6.791,0,1,0,0,9.6,6.8,6.8,0,0,0,0-9.6" transform="translate(-33.282 -0.06)" fill="#f9564f"/>
    <path id="Trazado_745" data-name="Trazado 745" d="M143.95,53.132a6.826,6.826,0,1,1,0-9.654,6.827,6.827,0,0,1,0,9.654" transform="translate(-47.565 -14.913)" fill="#f9564f"/>
    <path id="Trazado_746" data-name="Trazado 746" d="M134.253,53.139a6.861,6.861,0,1,1,9.7,0,6.869,6.869,0,0,1-9.7,0m9.654-9.654a6.791,6.791,0,1,0,0,9.6,6.8,6.8,0,0,0,0-9.6" transform="translate(-47.547 -14.895)" fill="#f9564f"/>
    <path id="Trazado_747" data-name="Trazado 747" d="M144.737,98.844a6.826,6.826,0,1,1,0-9.654,6.827,6.827,0,0,1,0,9.654" transform="translate(-47.848 -31.348)" fill="#f9564f"/>
    <path id="Trazado_748" data-name="Trazado 748" d="M135.041,98.85a6.861,6.861,0,1,1,9.7,0,6.869,6.869,0,0,1-9.7,0m9.654-9.654a6.791,6.791,0,1,0,0,9.6,6.8,6.8,0,0,0,0-9.6" transform="translate(-47.83 -31.33)" fill="#f9564f"/>
    <path id="Trazado_749" data-name="Trazado 749" d="M100.459,144.779a6.826,6.826,0,1,1,0-9.654,6.827,6.827,0,0,1,0,9.654" transform="translate(-31.928 -47.863)" fill="#f9564f"/>
    <path id="Trazado_750" data-name="Trazado 750" d="M90.762,144.786a6.861,6.861,0,1,1,9.7,0,6.87,6.87,0,0,1-9.7,0m9.654-9.654a6.792,6.792,0,1,0,0,9.6,6.8,6.8,0,0,0,0-9.6" transform="translate(-31.911 -47.845)" fill="#f9564f"/>
    <path id="Trazado_751" data-name="Trazado 751" d="M52.864,142.876a6.826,6.826,0,1,1,0-9.654,6.827,6.827,0,0,1,0,9.654" transform="translate(-14.816 -47.178)" fill="#f9564f"/>
    <path id="Trazado_752" data-name="Trazado 752" d="M43.168,142.882a6.861,6.861,0,1,1,9.7,0,6.869,6.869,0,0,1-9.7,0m9.654-9.654a6.791,6.791,0,1,0,0,9.6,6.8,6.8,0,0,0,0-9.6" transform="translate(-14.799 -47.161)" fill="#f9564f"/>
    <path id="Trazado_753" data-name="Trazado 753" d="M11.7,101.714a6.826,6.826,0,1,1,0-9.654,6.827,6.827,0,0,1,0,9.654" transform="translate(-0.017 -32.379)" fill="#f9564f"/>
    <path id="Trazado_754" data-name="Trazado 754" d="M2.006,101.721a6.861,6.861,0,1,1,9.7,0,6.869,6.869,0,0,1-9.7,0m9.654-9.654a6.791,6.791,0,1,0,0,9.6,6.8,6.8,0,0,0,0-9.6" transform="translate(0 -32.362)" fill="#f9564f"/>
    <path id="Trazado_755" data-name="Trazado 755" d="M15.537,53.374a6.826,6.826,0,1,1,0-9.654,6.827,6.827,0,0,1,0,9.654" transform="translate(-1.396 -15)" fill="#f9564f"/>
    <path id="Trazado_756" data-name="Trazado 756" d="M5.841,53.38a6.861,6.861,0,1,1,9.7,0,6.869,6.869,0,0,1-9.7,0m9.654-9.654a6.791,6.791,0,1,0,0,9.6,6.8,6.8,0,0,0,0-9.6" transform="translate(-1.379 -14.982)" fill="#f9564f"/>
    <path id="Trazado_757" data-name="Trazado 757" d="M216.7,22.4a7.731,7.731,0,0,1-2.322,5.644,7.62,7.62,0,0,1-5.619,2.342H194.4a7.633,7.633,0,0,1-5.637-2.325,7.737,7.737,0,0,1-2.3-5.661V8.061a7.668,7.668,0,0,1,2.322-5.625A7.649,7.649,0,0,1,194.4.111h14.358a7.666,7.666,0,0,1,5.6,2.325,7.638,7.638,0,0,1,2.34,5.625Zm-7.41.01V8.087a.5.5,0,0,0-.564-.567H194.43a.5.5,0,0,0-.564.567V22.41a.5.5,0,0,0,.564.567h14.293a.5.5,0,0,0,.564-.567" transform="translate(-67.037 -0.04)" fill="#44cfcb"/>
    <path id="Trazado_758" data-name="Trazado 758" d="M275.427,13.344A8.117,8.117,0,0,1,273,19.289a8.051,8.051,0,0,1-5.938,2.442H252.632v8.615h-7.41V0H267.06a8.072,8.072,0,0,1,5.92,2.442,8.045,8.045,0,0,1,2.446,5.91Zm-7.339-.039V8.356q0-.947-1.028-.947H252.632v6.913H267.06a.9.9,0,0,0,1.028-1.018" transform="translate(-88.165)" fill="#44cfcb"/>
    <path id="Trazado_759" data-name="Trazado 759" d="M330.817,30.275H303.378v-7.41h9.856V7.409h-2.447V9.642h-7.409V0L330.6.035V7.409h-9.962V22.866h10.174Z" transform="translate(-109.073 0)" fill="#44cfcb"/>
    <path id="Trazado_760" data-name="Trazado 760" d="M387.954,7.52H367.038q-.6,0-.6.562v3.373h21.447v7.41H366.435v4.112h15.988v7.41L359.1,30.35V8.051a7.667,7.667,0,0,1,2.3-5.637,7.668,7.668,0,0,1,5.637-2.3h20.916Z" transform="translate(-129.106 -0.04)" fill="#44cfcb"/>
    <path id="Trazado_761" data-name="Trazado 761" d="M444.21,30.346h-3.722a14.581,14.581,0,0,1-7.409-1.781l-11.486-6.657v8.438h-7.41V.071h7.41v8.3l11.486-6.6A14.682,14.682,0,0,1,440.488,0h3.722V7.409h-3.368a10.635,10.635,0,0,0-5.354,1.532l-10.777,6.232,10.777,6.232a10.627,10.627,0,0,0,5.354,1.531h3.368Z" transform="translate(-148.911 0)" fill="#44cfcb"/>
    <path id="Trazado_762" data-name="Trazado 762" d="M500.206,30.334H492.8V24.662H477.376v5.672h-7.41V18.906a9.579,9.579,0,0,1,.993-4.579,20.063,20.063,0,0,1,3.067-3.709l4.556-4.632a38.757,38.757,0,0,1,5.548-4.951q1.471-.868,5.229-.87h2.907a7.641,7.641,0,0,1,5.6,2.34,7.682,7.682,0,0,1,2.34,5.637ZM492.8,17.253V8.144a.5.5,0,0,0-.566-.569h-2.687A4.052,4.052,0,0,0,487.209,8q-.707.6-7.426,7.365a12.815,12.815,0,0,0-1.592,1.886Z" transform="translate(-168.967 -0.059)" fill="#44cfcb"/>
  </g>
</svg>
