<svg xmlns="http://www.w3.org/2000/svg" width="667.561" height="97.801" viewBox="0 0 667.561 97.801">
  <g id="Grupo_446" data-name="Grupo 446" transform="translate(-1875.464 1278.207)">
    <path id="Trazado_647" data-name="Trazado 647" d="M15.648,1227.42a7.488,7.488,0,0,1,5.359-12.745c.167,0,.336.006.5.018a6.836,6.836,0,0,0,7.206-7.937,9.548,9.548,0,0,1-.127-1.624,9.366,9.366,0,0,1,15.98-6.571l.058.058a9.3,9.3,0,0,1,2.693,6.633,9.639,9.639,0,0,1-.056.987,6.835,6.835,0,0,0,1.565,5.144c.127.15.259.295.4.432a6.834,6.834,0,0,0,4.4,1.988,5.963,5.963,0,0,1,3.884,1.757l.042.042a6.067,6.067,0,0,1-8.608,8.551l-.039-.038a5.987,5.987,0,0,1-1.7-3.615,6.837,6.837,0,0,0-1.965-4.123,6.933,6.933,0,0,0-.651-.573,6.838,6.838,0,0,0-5.2-1.352,9.648,9.648,0,0,1-3-.022,6.836,6.836,0,0,0-7.939,7.212,7.484,7.484,0,0,1-12.752,5.825Z" transform="translate(1870.51 -2419.804)" fill="#44cfcb"/>
    <path id="Trazado_648" data-name="Trazado 648" d="M15.651,1227.471l-.047-.047a7.523,7.523,0,0,1,5.384-12.8c.168,0,.337.006.5.018a6.8,6.8,0,0,0,7.17-7.9,9.612,9.612,0,0,1-.127-1.629,9.4,9.4,0,0,1,16.038-6.6l.058.058a9.339,9.339,0,0,1,2.7,6.657,9.679,9.679,0,0,1-.057.99,6.832,6.832,0,0,0,1.557,5.118c.125.148.258.293.4.431a6.793,6.793,0,0,0,4.381,1.978,6,6,0,0,1,3.906,1.767l.042.042a6.1,6.1,0,0,1-8.656,8.6l-.039-.039a6.026,6.026,0,0,1-1.715-3.635,6.8,6.8,0,0,0-7.779-6.019,9.672,9.672,0,0,1-3.01-.022,6.8,6.8,0,0,0-7.9,7.176,7.519,7.519,0,0,1-12.81,5.851m0-.095.046.047a7.449,7.449,0,0,0,12.694-5.8,6.869,6.869,0,0,1,7.979-7.247,9.608,9.608,0,0,0,2.988.021,6.87,6.87,0,0,1,7.857,6.079,5.957,5.957,0,0,0,1.7,3.594l.039.039a6.032,6.032,0,0,0,8.559-8.5l-.042-.042a5.928,5.928,0,0,0-3.862-1.746,6.865,6.865,0,0,1-4.426-2c-.139-.139-.273-.285-.4-.435a6.9,6.9,0,0,1-1.573-5.169,9.557,9.557,0,0,0,.056-.984,9.271,9.271,0,0,0-2.684-6.608l-.058-.058a9.332,9.332,0,0,0-15.921,6.548,9.542,9.542,0,0,0,.126,1.617,6.869,6.869,0,0,1-7.241,7.976c-.165-.011-.333-.017-.5-.017a7.459,7.459,0,0,0-5.335,12.686" transform="translate(1870.53 -2419.784)" fill="#44cfcb"/>
    <path id="Trazado_649" data-name="Trazado 649" d="M87.04,1203.011a9.366,9.366,0,0,1,6.623-15.989,9.556,9.556,0,0,1,.991.051,6.836,6.836,0,0,0,7.526-6.408,6.066,6.066,0,1,1,6.732,6.376,6.835,6.835,0,0,0-6,7.856,9.639,9.639,0,0,1,0,3,6.838,6.838,0,0,0,1.721,5.7c.064.07.13.139.2.205a6.834,6.834,0,0,0,5.345,1.983,7.489,7.489,0,1,1-6.9,6.988,6.836,6.836,0,0,0-1.988-5.258q-.131-.131-.27-.256a6.836,6.836,0,0,0-5.726-1.647,9.6,9.6,0,0,1-1.628.138,9.305,9.305,0,0,1-6.622-2.743" transform="translate(1844.531 -2412.145)" fill="#44cfcb"/>
    <path id="Trazado_650" data-name="Trazado 650" d="M87,1203.015a9.4,9.4,0,0,1,6.647-16.047,9.848,9.848,0,0,1,1,.051,6.8,6.8,0,0,0,7.488-6.376,6.1,6.1,0,1,1,6.769,6.412,6.8,6.8,0,0,0-5.968,7.817,9.682,9.682,0,0,1,0,3.011,6.762,6.762,0,0,0,1.711,5.675c.063.069.13.138.2.2a6.794,6.794,0,0,0,5.318,1.973,7.523,7.523,0,1,1-6.929,7.019,6.8,6.8,0,0,0-1.978-5.232c-.087-.087-.177-.172-.268-.255a6.765,6.765,0,0,0-5.7-1.639,9.607,9.607,0,0,1-1.634.139A9.337,9.337,0,0,1,87,1203.015m25.48-26.282a6.026,6.026,0,0,0-10.282,3.914,6.869,6.869,0,0,1-7.562,6.44,9.5,9.5,0,0,0-.988-.05,9.332,9.332,0,0,0,0,18.664,9.6,9.6,0,0,0,1.622-.138,6.831,6.831,0,0,1,5.755,1.655c.092.083.184.169.271.257a6.872,6.872,0,0,1,2,5.284,7.455,7.455,0,1,0,6.866-6.955,6.862,6.862,0,0,1-5.371-1.992c-.068-.068-.134-.137-.2-.206a6.832,6.832,0,0,1-1.729-5.733,9.6,9.6,0,0,0,0-2.989,6.87,6.87,0,0,1,6.029-7.9,5.954,5.954,0,0,0,3.588-1.723,6.04,6.04,0,0,0,0-8.531" transform="translate(1844.551 -2412.125)" fill="#44cfcb"/>
    <path id="Trazado_651" data-name="Trazado 651" d="M79.965,1157.412a9.305,9.305,0,0,1-2.743-6.623,9.71,9.71,0,0,1,.051-.991,6.838,6.838,0,0,0-1.6-5.134q-.178-.209-.371-.4a6.835,6.835,0,0,0-4.442-1.99,6.066,6.066,0,1,1,6.376-6.732,6.835,6.835,0,0,0,7.856,6,9.66,9.66,0,0,1,1.491-.116,9.556,9.556,0,0,1,1.509.119,6.836,6.836,0,0,0,7.892-7.262,7.489,7.489,0,1,1,6.988,6.9,6.835,6.835,0,0,0-7.161,7.984,9.593,9.593,0,0,1,.139,1.627,9.366,9.366,0,0,1-15.989,6.623" transform="translate(1851.556 -2394.264)" fill="#44cfcb"/>
    <path id="Trazado_652" data-name="Trazado 652" d="M79.921,1157.417a9.337,9.337,0,0,1-2.753-6.647,9.785,9.785,0,0,1,.051-.994,6.832,6.832,0,0,0-1.587-5.107c-.116-.137-.241-.272-.369-.4a6.794,6.794,0,0,0-4.42-1.98,6.1,6.1,0,1,1,6.412-6.77,6.8,6.8,0,0,0,7.817,5.968,9.566,9.566,0,0,1,1.5-.116,9.713,9.713,0,0,1,1.514.118,6.8,6.8,0,0,0,7.852-7.226,7.523,7.523,0,1,1,7.02,6.929,6.8,6.8,0,0,0-7.126,7.944,9.609,9.609,0,0,1,.139,1.633,9.4,9.4,0,0,1-16.047,6.647m-4.611-13.2c.13.13.255.265.373.4a6.9,6.9,0,0,1,1.6,5.159,9.81,9.81,0,0,0-.05.987,9.332,9.332,0,1,0,18.664,0,9.525,9.525,0,0,0-.138-1.621,6.869,6.869,0,0,1,7.2-8.025A7.455,7.455,0,1,0,96,1134.258a6.869,6.869,0,0,1-7.932,7.3,9.655,9.655,0,0,0-2.989,0,6.9,6.9,0,0,1-5.237-1.326,6.811,6.811,0,0,1-.689-.6,6.888,6.888,0,0,1-1.97-4.1,5.959,5.959,0,0,0-1.724-3.588,6.032,6.032,0,1,0-4.617,10.282,6.86,6.86,0,0,1,4.464,2" transform="translate(1851.576 -2394.244)" fill="#44cfcb"/>
    <path id="Trazado_653" data-name="Trazado 653" d="M21.7,1171.023a6.074,6.074,0,0,1,0-8.579,5.986,5.986,0,0,1,3.608-1.733,6.835,6.835,0,0,0,6-7.856,9.692,9.692,0,0,1,0-3,6.833,6.833,0,0,0-1.721-5.7c-.064-.07-.13-.139-.2-.206a6.835,6.835,0,0,0-5.345-1.982,7.489,7.489,0,1,1,6.9-6.988,6.836,6.836,0,0,0,1.988,5.258q.131.131.27.256a6.836,6.836,0,0,0,5.726,1.647,9.6,9.6,0,0,1,1.628-.139,9.366,9.366,0,1,1,0,18.732,9.738,9.738,0,0,1-.991-.051,6.835,6.835,0,0,0-7.525,6.408,6.061,6.061,0,0,1-10.34,3.936" transform="translate(1869.597 -2394.554)" fill="#44cfcb"/>
    <path id="Trazado_654" data-name="Trazado 654" d="M21.653,1171.029a6.108,6.108,0,0,1,0-8.628,6.026,6.026,0,0,1,3.629-1.743,6.8,6.8,0,0,0,5.968-7.817,9.72,9.72,0,0,1-.116-1.5,9.623,9.623,0,0,1,.119-1.514,6.764,6.764,0,0,0-1.712-5.676c-.063-.069-.129-.137-.2-.2a6.8,6.8,0,0,0-5.318-1.973,7.523,7.523,0,1,1,6.929-7.019,6.8,6.8,0,0,0,1.979,5.231c.087.087.177.173.268.255a6.764,6.764,0,0,0,5.7,1.639,9.662,9.662,0,0,1,1.633-.139,9.4,9.4,0,1,1,0,18.8,9.829,9.829,0,0,1-1-.051,6.8,6.8,0,0,0-7.488,6.376,6.094,6.094,0,0,1-10.4,3.958m7.741-27.127c.067.067.134.137.2.207a6.833,6.833,0,0,1,1.729,5.733,9.622,9.622,0,0,0,0,2.989,6.87,6.87,0,0,1-6.029,7.9,5.957,5.957,0,0,0-3.588,1.723,6.033,6.033,0,1,0,10.281,4.618,6.871,6.871,0,0,1,7.563-6.441,9.667,9.667,0,0,0,.988.051,9.332,9.332,0,1,0,0-18.664,9.521,9.521,0,0,0-1.621.138,6.833,6.833,0,0,1-5.755-1.655c-.092-.083-.184-.17-.272-.257a6.872,6.872,0,0,1-2-5.284,7.455,7.455,0,1,0-6.866,6.955,6.863,6.863,0,0,1,5.371,1.992" transform="translate(1869.616 -2394.535)" fill="#44cfcb"/>
    <path id="Trazado_655" data-name="Trazado 655" d="M77.124,1189.38a6.747,6.747,0,1,1,0-9.542,6.748,6.748,0,0,1,0,9.542" transform="translate(1851.39 -2413.212)" fill="#f9564f"/>
    <path id="Trazado_656" data-name="Trazado 656" d="M67.54,1189.386a6.781,6.781,0,1,1,9.59,0,6.789,6.789,0,0,1-9.59,0m9.542-9.542a6.713,6.713,0,1,0,0,9.493,6.72,6.72,0,0,0,0-9.493" transform="translate(1851.408 -2413.194)" fill="#f9564f"/>
    <path id="Trazado_657" data-name="Trazado 657" d="M53.681,1125.123a6.747,6.747,0,1,1,0-9.542,6.747,6.747,0,0,1,0,9.542" transform="translate(1859.992 -2389.633)" fill="#f9564f"/>
    <path id="Trazado_658" data-name="Trazado 658" d="M44.1,1125.129a6.781,6.781,0,1,1,9.59,0,6.79,6.79,0,0,1-9.59,0m9.542-9.542a6.713,6.713,0,1,0,0,9.493,6.72,6.72,0,0,0,0-9.493" transform="translate(1860.01 -2389.615)" fill="#f9564f"/>
    <path id="Trazado_659" data-name="Trazado 659" d="M104.138,1121.9a6.747,6.747,0,1,1,0-9.542,6.748,6.748,0,0,1,0,9.542" transform="translate(1841.477 -2388.449)" fill="#f9564f"/>
    <path id="Trazado_660" data-name="Trazado 660" d="M94.554,1121.9a6.781,6.781,0,1,1,9.59,0,6.79,6.79,0,0,1-9.59,0m9.542-9.542a6.713,6.713,0,1,0,0,9.493,6.72,6.72,0,0,0,0-9.493" transform="translate(1841.495 -2388.431)" fill="#f9564f"/>
    <path id="Trazado_661" data-name="Trazado 661" d="M143.815,1163.16a6.747,6.747,0,1,1,0-9.542,6.748,6.748,0,0,1,0,9.542" transform="translate(1826.918 -2403.591)" fill="#f9564f"/>
    <path id="Trazado_662" data-name="Trazado 662" d="M134.23,1163.167a6.781,6.781,0,1,1,9.59,0,6.79,6.79,0,0,1-9.59,0m9.542-9.542a6.713,6.713,0,1,0,0,9.493,6.72,6.72,0,0,0,0-9.493" transform="translate(1826.936 -2403.573)" fill="#f9564f"/>
    <path id="Trazado_663" data-name="Trazado 663" d="M144.6,1208.872a6.747,6.747,0,1,1,0-9.542,6.748,6.748,0,0,1,0,9.542" transform="translate(1826.629 -2420.365)" fill="#f9564f"/>
    <path id="Trazado_664" data-name="Trazado 664" d="M135.018,1208.879a6.781,6.781,0,1,1,9.59,0,6.79,6.79,0,0,1-9.59,0m9.542-9.542a6.713,6.713,0,1,0,0,9.493,6.72,6.72,0,0,0,0-9.493" transform="translate(1826.647 -2420.347)" fill="#f9564f"/>
    <path id="Trazado_665" data-name="Trazado 665" d="M100.324,1254.808a6.747,6.747,0,1,1,0-9.542,6.748,6.748,0,0,1,0,9.542" transform="translate(1842.877 -2437.22)" fill="#f9564f"/>
    <path id="Trazado_666" data-name="Trazado 666" d="M90.739,1254.814a6.781,6.781,0,1,1,9.59,0,6.791,6.791,0,0,1-9.59,0m9.543-9.542a6.713,6.713,0,1,0,0,9.493,6.721,6.721,0,0,0,0-9.493" transform="translate(1842.895 -2437.202)" fill="#f9564f"/>
    <path id="Trazado_667" data-name="Trazado 667" d="M52.729,1252.9a6.747,6.747,0,1,1,0-9.542,6.748,6.748,0,0,1,0,9.542" transform="translate(1860.342 -2436.522)" fill="#f9564f"/>
    <path id="Trazado_668" data-name="Trazado 668" d="M43.145,1252.911a6.781,6.781,0,1,1,9.59,0,6.79,6.79,0,0,1-9.59,0m9.542-9.542a6.713,6.713,0,1,0,0,9.493,6.72,6.72,0,0,0,0-9.493" transform="translate(1860.36 -2436.504)" fill="#f9564f"/>
    <path id="Trazado_669" data-name="Trazado 669" d="M11.567,1211.742a6.747,6.747,0,1,1,0-9.542,6.748,6.748,0,0,1,0,9.542" transform="translate(1875.446 -2421.417)" fill="#f9564f"/>
    <path id="Trazado_670" data-name="Trazado 670" d="M1.983,1211.749a6.781,6.781,0,1,1,9.59,0,6.79,6.79,0,0,1-9.59,0m9.542-9.542a6.713,6.713,0,1,0,0,9.493,6.72,6.72,0,0,0,0-9.493" transform="translate(1875.464 -2421.4)" fill="#f9564f"/>
    <path id="Trazado_671" data-name="Trazado 671" d="M15.4,1163.4a6.747,6.747,0,1,1,0-9.542,6.748,6.748,0,0,1,0,9.542" transform="translate(1874.039 -2403.679)" fill="#f9564f"/>
    <path id="Trazado_672" data-name="Trazado 672" d="M5.818,1163.408a6.781,6.781,0,1,1,9.59,0,6.79,6.79,0,0,1-9.59,0m9.542-9.542a6.713,6.713,0,1,0,0,9.493,6.72,6.72,0,0,0,0-9.493" transform="translate(1874.057 -2403.661)" fill="#f9564f"/>
    <path id="Trazado_673" data-name="Trazado 673" d="M216.346,1132.3a7.641,7.641,0,0,1-2.3,5.578,7.532,7.532,0,0,1-5.554,2.315H194.305a7.544,7.544,0,0,1-5.572-2.3,7.647,7.647,0,0,1-2.278-5.6v-14.173a7.841,7.841,0,0,1,7.849-7.858H208.5a7.872,7.872,0,0,1,7.849,7.858Zm-7.324.01v-14.156a.5.5,0,0,0-.558-.561H194.338a.494.494,0,0,0-.558.561v14.156a.494.494,0,0,0,.558.561h14.127a.494.494,0,0,0,.558-.561" transform="translate(1807.044 -2388.411)" fill="#44cfcb"/>
    <path id="Trazado_674" data-name="Trazado 674" d="M275.077,1123.352a8.219,8.219,0,0,1-8.27,8.291H252.546v8.515h-7.324v-29.995h21.585a8.248,8.248,0,0,1,8.27,8.256Zm-7.254-.039v-4.891q0-.936-1.016-.936H252.546v6.833h14.261a.894.894,0,0,0,1.016-1.006" transform="translate(1785.48 -2388.37)" fill="#44cfcb"/>
    <path id="Trazado_675" data-name="Trazado 675" d="M330.5,1140.088H303.378v-7.324h9.741v-15.278H310.7v2.208h-7.323v-9.531l26.911.035v7.288h-9.847v15.278H330.5Z" transform="translate(1764.14 -2388.37)" fill="#44cfcb"/>
    <path id="Trazado_676" data-name="Trazado 676" d="M387.62,1117.6H366.946q-.6,0-.6.556v3.334h21.2v7.324h-21.2v4.064h15.8v7.324l-23.056-.035v-22.041a7.778,7.778,0,0,1,7.849-7.849H387.62Z" transform="translate(1743.694 -2388.41)" fill="#44cfcb"/>
    <path id="Trazado_677" data-name="Trazado 677" d="M443.862,1140.158h-3.679a14.413,14.413,0,0,1-7.323-1.76l-11.353-6.58v8.34h-7.324v-29.924h7.324v8.2l11.353-6.526a14.513,14.513,0,0,1,7.323-1.744h3.679v7.323h-3.329a10.512,10.512,0,0,0-5.292,1.514l-10.652,6.16,10.652,6.16a10.505,10.505,0,0,0,5.292,1.514h3.329Z" transform="translate(1723.481 -2388.37)" fill="#44cfcb"/>
    <path id="Trazado_678" data-name="Trazado 678" d="M499.856,1140.149h-7.324v-5.606H477.29v5.606h-7.324v-11.3a9.468,9.468,0,0,1,.981-4.526,19.826,19.826,0,0,1,3.031-3.666l4.5-4.578a38.307,38.307,0,0,1,5.484-4.894q1.454-.858,5.169-.86h2.873a7.9,7.9,0,0,1,7.849,7.885Zm-7.324-12.93v-9a.5.5,0,0,0-.56-.563h-2.656a4.006,4.006,0,0,0-2.307.422q-.7.6-7.34,7.28a12.672,12.672,0,0,0-1.573,1.864Z" transform="translate(1703.011 -2388.431)" fill="#44cfcb"/>
    <path id="Trazado_679" data-name="Trazado 679" d="M240.751,1198.321q0,6.626-1.561,9.314-1.374,2.251-8.8,9.752-3.933,4-7.93,8a30.406,30.406,0,0,1-6.619,5.376,16.966,16.966,0,0,1-8.117,1.75H187.864v-53.323H226.7a13.607,13.607,0,0,1,9.9,4.095,13.4,13.4,0,0,1,4.152,9.908Zm-13.05-.272v-4.809a.883.883,0,0,0-1-1H200.914v27.224h4.111a11.222,11.222,0,0,0,5.046-1,15.832,15.832,0,0,0,4.048-3.247q4.922-4.683,12.833-13.049.746-.874.748-4.121" transform="translate(1806.528 -2413.7)" fill="#34495e"/>
    <path id="Trazado_680" data-name="Trazado 680" d="M337.54,1192.241H300.7q-1.063,0-1.062.99v5.941h37.776v13.049H299.639v7.243H327.8v13.05l-41.085-.063v-39.275a13.858,13.858,0,0,1,13.987-13.986H337.54Z" transform="translate(1770.255 -2413.7)" fill="#34495e"/>
    <path id="Trazado_681" data-name="Trazado 681" d="M438.233,1199.311a24.444,24.444,0,0,1-.75,5.94q-.749,3-6.431,8.751-4,4.063-7.992,8.189-7.056,6.94-9.709,8.533t-9.272,1.595h-5.057a13.966,13.966,0,0,1-14.049-14.05v-39.274h13.05v39.274a.883.883,0,0,0,1,1h4.745q3.184,0,4.121-.75,1.249-1.063,13.05-12.945a16.953,16.953,0,0,0,3.309-4.065,10.6,10.6,0,0,0,1.062-5v-17.51h12.925Z" transform="translate(1734.2 -2413.628)" fill="#34495e"/>
    <path id="Trazado_682" data-name="Trazado 682" d="M537.8,1192.241H500.965q-1.063,0-1.062.99v5.941h37.776v13.049H499.9v7.243h28.16v13.05l-41.085-.063v-39.275a13.858,13.858,0,0,1,13.987-13.986H537.8Z" transform="translate(1696.769 -2413.7)" fill="#34495e"/>
    <path id="Trazado_683" data-name="Trazado 683" d="M630.1,1232.444H599.383a13.966,13.966,0,0,1-14.049-14.049v-39.4h13.05v39.4a.883.883,0,0,0,1,1H630.1Z" transform="translate(1660.677 -2413.628)" fill="#34495e"/>
    <path id="Trazado_684" data-name="Trazado 684" d="M725.017,1218.45a13.61,13.61,0,0,1-4.09,9.94,13.424,13.424,0,0,1-9.9,4.126H685.743a13.441,13.441,0,0,1-9.927-4.095,13.629,13.629,0,0,1-4.059-9.971v-25.256a13.972,13.972,0,0,1,13.987-14h25.289a14.025,14.025,0,0,1,13.986,14Zm-13.05.016V1193.24a.881.881,0,0,0-.994-1H685.8a.881.881,0,0,0-.994,1v25.226a.88.88,0,0,0,.994,1h25.173a.881.881,0,0,0,.994-1" transform="translate(1628.965 -2413.7)" fill="#34495e"/>
    <path id="Trazado_685" data-name="Trazado 685" d="M827.653,1202.5a14.646,14.646,0,0,1-14.736,14.773H787.5v15.174h-13.05v-53.449h38.463a14.7,14.7,0,0,1,14.736,14.712Zm-12.925-.068v-8.715q0-1.667-1.811-1.668H787.5v12.176h25.413a1.592,1.592,0,0,0,1.811-1.793" transform="translate(1591.281 -2413.627)" fill="#34495e"/>
    <path id="Trazado_686" data-name="Trazado 686" d="M923.833,1192.241H886.994q-1.063,0-1.062.99v5.941h37.776v13.049H885.932v7.243h28.16v13.05l-41.085-.063v-39.275a13.858,13.858,0,0,1,13.987-13.986h36.839Z" transform="translate(1555.117 -2413.7)" fill="#34495e"/>
    <path id="Trazado_687" data-name="Trazado 687" d="M1023.892,1232.443h-6.545a25.488,25.488,0,0,1-12.968-3.135l-20.261-11.725v14.86h-13.05V1179.12l42.708-.125a10.125,10.125,0,0,1,10.116,10.115v11.676a10.125,10.125,0,0,1-10.116,10.115h-15.11q3.372,2.029,6.681,3.993a43.489,43.489,0,0,0,7.93,3.865,16.911,16.911,0,0,0,4.746.634h5.869Zm-12.3-41.21H984.118v7.368h27.473Z" transform="translate(1519.134 -2413.628)" fill="#34495e"/>
  </g>
</svg>
