<svg xmlns="http://www.w3.org/2000/svg" width="472.837" height="75" viewBox="0 0 472.837 97.801">
  <g id="Grupo_449" data-name="Grupo 449" transform="translate(-1875.464 1785.609)">
    <path id="Trazado_535" data-name="Trazado 535" d="M15.648,425.905a7.488,7.488,0,0,1,5.359-12.745c.167,0,.336.006.5.018a6.836,6.836,0,0,0,7.206-7.937,9.547,9.547,0,0,1-.127-1.624,9.366,9.366,0,0,1,15.98-6.571l.058.058a9.3,9.3,0,0,1,2.693,6.633,9.636,9.636,0,0,1-.056.987,6.835,6.835,0,0,0,1.565,5.144q.19.226.4.432a6.834,6.834,0,0,0,4.4,1.988,5.962,5.962,0,0,1,3.884,1.757l.042.042a6.067,6.067,0,0,1-8.608,8.551l-.039-.039a5.987,5.987,0,0,1-1.7-3.615,6.836,6.836,0,0,0-1.965-4.123,6.951,6.951,0,0,0-.651-.574,6.839,6.839,0,0,0-5.2-1.352,9.65,9.65,0,0,1-3-.022,6.836,6.836,0,0,0-7.939,7.212A7.484,7.484,0,0,1,15.7,425.952Z" transform="translate(1870.51 -2125.691)" fill="#44cfcb"/>
    <path id="Trazado_536" data-name="Trazado 536" d="M15.651,425.956l-.047-.047a7.523,7.523,0,0,1,5.384-12.8c.168,0,.337.006.5.018a6.8,6.8,0,0,0,7.17-7.9,9.608,9.608,0,0,1-.127-1.629A9.4,9.4,0,0,1,44.573,397l.058.059a9.337,9.337,0,0,1,2.7,6.657,9.666,9.666,0,0,1-.057.989,6.831,6.831,0,0,0,1.557,5.118c.125.148.258.293.4.43a6.792,6.792,0,0,0,4.381,1.978A6,6,0,0,1,57.517,414l.042.042a6.1,6.1,0,0,1-8.656,8.6l-.039-.04a6.025,6.025,0,0,1-1.715-3.635,6.8,6.8,0,0,0-7.779-6.018,9.666,9.666,0,0,1-3.01-.022,6.8,6.8,0,0,0-7.9,7.176,7.519,7.519,0,0,1-12.81,5.851m0-.095.046.047a7.449,7.449,0,0,0,12.694-5.8,6.869,6.869,0,0,1,7.979-7.247,9.554,9.554,0,0,0,2.988.022,6.9,6.9,0,0,1,5.228,1.36,6.981,6.981,0,0,1,.654.575,6.894,6.894,0,0,1,1.975,4.144,5.956,5.956,0,0,0,1.7,3.594l.039.039a6.032,6.032,0,0,0,8.559-8.5l-.042-.042a5.925,5.925,0,0,0-3.862-1.746,6.861,6.861,0,0,1-4.426-2c-.139-.139-.273-.285-.4-.434A6.9,6.9,0,0,1,47.21,404.7a9.544,9.544,0,0,0,.056-.983,9.273,9.273,0,0,0-2.684-6.609l-.058-.058A9.331,9.331,0,0,0,28.6,403.6a9.532,9.532,0,0,0,.126,1.617,6.869,6.869,0,0,1-7.241,7.976c-.165-.01-.333-.016-.5-.017a7.459,7.459,0,0,0-5.335,12.686" transform="translate(1870.53 -2125.671)" fill="#44cfcb"/>
    <path id="Trazado_537" data-name="Trazado 537" d="M87.04,401.5a9.366,9.366,0,0,1,6.623-15.989,9.548,9.548,0,0,1,.991.051,6.836,6.836,0,0,0,7.526-6.408,6.066,6.066,0,1,1,6.732,6.376,6.835,6.835,0,0,0-6,7.857,9.64,9.64,0,0,1,0,3,6.838,6.838,0,0,0,1.721,5.7q.1.1.2.2a6.836,6.836,0,0,0,5.345,1.983,7.489,7.489,0,1,1-6.9,6.988A6.836,6.836,0,0,0,101.286,406q-.131-.131-.27-.256a6.834,6.834,0,0,0-5.726-1.647,9.666,9.666,0,0,1-1.628.137A9.305,9.305,0,0,1,87.04,401.5" transform="translate(1844.531 -2118.032)" fill="#44cfcb"/>
    <path id="Trazado_538" data-name="Trazado 538" d="M87,401.5a9.4,9.4,0,0,1,6.647-16.047,9.83,9.83,0,0,1,1,.051,6.8,6.8,0,0,0,7.488-6.376,6.1,6.1,0,1,1,6.769,6.412,6.8,6.8,0,0,0-5.968,7.817,9.682,9.682,0,0,1,0,3.011,6.762,6.762,0,0,0,1.711,5.675c.063.069.13.138.2.2a6.793,6.793,0,0,0,5.318,1.973,7.523,7.523,0,1,1-6.929,7.019,6.8,6.8,0,0,0-1.978-5.232c-.087-.087-.177-.172-.268-.255a6.763,6.763,0,0,0-5.7-1.638,9.672,9.672,0,0,1-1.634.139A9.337,9.337,0,0,1,87,401.5m25.48-26.282a6.026,6.026,0,0,0-10.282,3.914,6.869,6.869,0,0,1-7.562,6.44,9.5,9.5,0,0,0-.988-.05,9.332,9.332,0,0,0,0,18.664,9.594,9.594,0,0,0,1.622-.138,6.831,6.831,0,0,1,5.755,1.655c.092.083.184.169.271.257a6.872,6.872,0,0,1,2,5.284,7.455,7.455,0,1,0,6.866-6.955,6.862,6.862,0,0,1-5.371-1.992c-.068-.068-.134-.137-.2-.206a6.832,6.832,0,0,1-1.729-5.733,9.6,9.6,0,0,0,0-2.989,6.87,6.87,0,0,1,6.029-7.9,5.954,5.954,0,0,0,3.588-1.723,6.04,6.04,0,0,0,0-8.531" transform="translate(1844.551 -2118.012)" fill="#44cfcb"/>
    <path id="Trazado_539" data-name="Trazado 539" d="M79.965,355.9a9.306,9.306,0,0,1-2.743-6.623,9.713,9.713,0,0,1,.051-.991,6.838,6.838,0,0,0-1.6-5.133q-.178-.209-.371-.4a6.835,6.835,0,0,0-4.442-1.99,6.066,6.066,0,1,1,6.376-6.732,6.835,6.835,0,0,0,7.856,6,9.653,9.653,0,0,1,1.491-.116,9.552,9.552,0,0,1,1.509.119,6.836,6.836,0,0,0,7.892-7.262,7.489,7.489,0,1,1,6.988,6.9,6.835,6.835,0,0,0-7.161,7.985,9.588,9.588,0,0,1,.139,1.627A9.366,9.366,0,0,1,79.965,355.9" transform="translate(1851.556 -2100.151)" fill="#44cfcb"/>
    <path id="Trazado_540" data-name="Trazado 540" d="M79.921,355.9a9.336,9.336,0,0,1-2.753-6.647,9.788,9.788,0,0,1,.051-.995,6.833,6.833,0,0,0-1.587-5.107c-.116-.137-.241-.272-.369-.4a6.8,6.8,0,0,0-4.42-1.98A6.1,6.1,0,1,1,77.254,334a6.8,6.8,0,0,0,7.817,5.968,9.708,9.708,0,0,1,3.011,0,6.8,6.8,0,0,0,7.852-7.226,7.523,7.523,0,1,1,7.02,6.929,6.8,6.8,0,0,0-7.126,7.944,9.61,9.61,0,0,1,.139,1.634A9.4,9.4,0,0,1,79.921,355.9M75.31,342.7c.13.13.255.265.373.4a6.9,6.9,0,0,1,1.6,5.159,9.811,9.811,0,0,0-.05.987,9.332,9.332,0,0,0,18.664,0,9.529,9.529,0,0,0-.138-1.622,6.87,6.87,0,0,1,7.2-8.025A7.454,7.454,0,1,0,96,332.743a6.869,6.869,0,0,1-7.932,7.3,9.649,9.649,0,0,0-2.989,0,6.9,6.9,0,0,1-5.237-1.326,6.781,6.781,0,0,1-.689-.6,6.888,6.888,0,0,1-1.97-4.1,5.959,5.959,0,0,0-1.724-3.588A6.032,6.032,0,1,0,70.846,340.7a6.86,6.86,0,0,1,4.464,2" transform="translate(1851.576 -2100.131)" fill="#44cfcb"/>
    <path id="Trazado_541" data-name="Trazado 541" d="M21.7,369.508a6.074,6.074,0,0,1,0-8.579,5.986,5.986,0,0,1,3.608-1.733,6.835,6.835,0,0,0,6-7.856,9.691,9.691,0,0,1,0-3,6.834,6.834,0,0,0-1.721-5.7q-.1-.105-.2-.206a6.835,6.835,0,0,0-5.345-1.982,7.489,7.489,0,1,1,6.9-6.988,6.836,6.836,0,0,0,1.988,5.258q.131.131.27.256a6.836,6.836,0,0,0,5.726,1.647,9.6,9.6,0,0,1,1.628-.139,9.366,9.366,0,1,1,0,18.732,9.565,9.565,0,0,1-.991-.051,6.835,6.835,0,0,0-7.525,6.408,6.061,6.061,0,0,1-10.34,3.936" transform="translate(1869.597 -2100.441)" fill="#44cfcb"/>
    <path id="Trazado_542" data-name="Trazado 542" d="M21.653,369.514a6.108,6.108,0,0,1,0-8.628,6.025,6.025,0,0,1,3.629-1.743,6.8,6.8,0,0,0,5.968-7.817,9.72,9.72,0,0,1-.116-1.5,9.623,9.623,0,0,1,.119-1.514,6.764,6.764,0,0,0-1.712-5.676c-.063-.069-.129-.137-.2-.2a6.8,6.8,0,0,0-5.318-1.973,7.523,7.523,0,1,1,6.929-7.019,6.8,6.8,0,0,0,1.979,5.232c.087.087.177.173.268.255a6.763,6.763,0,0,0,5.7,1.639,9.665,9.665,0,0,1,1.633-.139,9.4,9.4,0,1,1,0,18.8,9.8,9.8,0,0,1-1-.051,6.8,6.8,0,0,0-7.488,6.376,6.094,6.094,0,0,1-10.4,3.958m7.741-27.127c.067.067.134.137.2.206a6.833,6.833,0,0,1,1.729,5.733,9.622,9.622,0,0,0,0,2.989,6.87,6.87,0,0,1-6.029,7.9,5.958,5.958,0,0,0-3.588,1.723,6.033,6.033,0,1,0,10.281,4.617,6.871,6.871,0,0,1,7.563-6.441,9.667,9.667,0,0,0,.988.051,9.332,9.332,0,1,0,0-18.664,9.521,9.521,0,0,0-1.621.138,6.833,6.833,0,0,1-5.755-1.655c-.092-.083-.184-.17-.272-.257a6.872,6.872,0,0,1-2-5.284,7.455,7.455,0,1,0-6.866,6.955,6.862,6.862,0,0,1,5.371,1.992" transform="translate(1869.616 -2100.422)" fill="#44cfcb"/>
    <path id="Trazado_543" data-name="Trazado 543" d="M77.124,387.865a6.747,6.747,0,1,1,0-9.542,6.748,6.748,0,0,1,0,9.542" transform="translate(1851.39 -2119.099)" fill="#f9564f"/>
    <path id="Trazado_544" data-name="Trazado 544" d="M67.54,387.872a6.781,6.781,0,1,1,9.59,0,6.79,6.79,0,0,1-9.59,0m9.542-9.542a6.713,6.713,0,1,0,0,9.493,6.72,6.72,0,0,0,0-9.493" transform="translate(1851.408 -2119.081)" fill="#f9564f"/>
    <path id="Trazado_545" data-name="Trazado 545" d="M53.681,323.608a6.747,6.747,0,1,1,0-9.542,6.748,6.748,0,0,1,0,9.542" transform="translate(1859.992 -2095.52)" fill="#f9564f"/>
    <path id="Trazado_546" data-name="Trazado 546" d="M44.1,323.614a6.781,6.781,0,1,1,9.59,0,6.79,6.79,0,0,1-9.59,0m9.542-9.543a6.713,6.713,0,1,0,0,9.493,6.721,6.721,0,0,0,0-9.493" transform="translate(1860.01 -2095.501)" fill="#f9564f"/>
    <path id="Trazado_547" data-name="Trazado 547" d="M104.138,320.381a6.747,6.747,0,1,1,0-9.542,6.748,6.748,0,0,1,0,9.542" transform="translate(1841.477 -2094.335)" fill="#f9564f"/>
    <path id="Trazado_548" data-name="Trazado 548" d="M94.554,320.388a6.781,6.781,0,1,1,9.59,0,6.79,6.79,0,0,1-9.59,0m9.542-9.542a6.713,6.713,0,1,0,0,9.493,6.72,6.72,0,0,0,0-9.493" transform="translate(1841.495 -2094.318)" fill="#f9564f"/>
    <path id="Trazado_549" data-name="Trazado 549" d="M143.815,361.645a6.747,6.747,0,1,1,0-9.542,6.748,6.748,0,0,1,0,9.542" transform="translate(1826.918 -2109.477)" fill="#f9564f"/>
    <path id="Trazado_550" data-name="Trazado 550" d="M134.23,361.652a6.781,6.781,0,1,1,9.59,0,6.79,6.79,0,0,1-9.59,0m9.542-9.542a6.713,6.713,0,1,0,0,9.493,6.72,6.72,0,0,0,0-9.493" transform="translate(1826.936 -2109.459)" fill="#f9564f"/>
    <path id="Trazado_551" data-name="Trazado 551" d="M144.6,407.357a6.747,6.747,0,1,1,0-9.542,6.747,6.747,0,0,1,0,9.542" transform="translate(1826.629 -2126.251)" fill="#f9564f"/>
    <path id="Trazado_552" data-name="Trazado 552" d="M135.018,407.364a6.781,6.781,0,1,1,9.59,0,6.79,6.79,0,0,1-9.59,0m9.542-9.542a6.713,6.713,0,1,0,0,9.493,6.72,6.72,0,0,0,0-9.493" transform="translate(1826.647 -2126.233)" fill="#f9564f"/>
    <path id="Trazado_553" data-name="Trazado 553" d="M100.324,453.293a6.747,6.747,0,1,1,0-9.542,6.748,6.748,0,0,1,0,9.542" transform="translate(1842.877 -2143.107)" fill="#f9564f"/>
    <path id="Trazado_554" data-name="Trazado 554" d="M90.739,453.3a6.781,6.781,0,1,1,9.59,0,6.791,6.791,0,0,1-9.59,0m9.543-9.542a6.713,6.713,0,1,0,0,9.493,6.721,6.721,0,0,0,0-9.493" transform="translate(1842.895 -2143.089)" fill="#f9564f"/>
    <path id="Trazado_555" data-name="Trazado 555" d="M52.729,451.389a6.747,6.747,0,1,1,0-9.542,6.748,6.748,0,0,1,0,9.542" transform="translate(1860.342 -2142.408)" fill="#f9564f"/>
    <path id="Trazado_556" data-name="Trazado 556" d="M43.145,451.4a6.781,6.781,0,1,1,9.59,0,6.79,6.79,0,0,1-9.59,0m9.542-9.542a6.713,6.713,0,1,0,0,9.493,6.72,6.72,0,0,0,0-9.493" transform="translate(1860.36 -2142.391)" fill="#f9564f"/>
    <path id="Trazado_557" data-name="Trazado 557" d="M11.567,410.227a6.747,6.747,0,1,1,0-9.542,6.748,6.748,0,0,1,0,9.542" transform="translate(1875.446 -2127.304)" fill="#f9564f"/>
    <path id="Trazado_558" data-name="Trazado 558" d="M1.983,410.234a6.781,6.781,0,1,1,9.59,0,6.79,6.79,0,0,1-9.59,0m9.542-9.542a6.713,6.713,0,1,0,0,9.493,6.72,6.72,0,0,0,0-9.493" transform="translate(1875.464 -2127.287)" fill="#f9564f"/>
    <path id="Trazado_559" data-name="Trazado 559" d="M15.4,361.887a6.747,6.747,0,1,1,0-9.542,6.748,6.748,0,0,1,0,9.542" transform="translate(1874.039 -2109.566)" fill="#f9564f"/>
    <path id="Trazado_560" data-name="Trazado 560" d="M5.818,361.894a6.781,6.781,0,1,1,9.59,0,6.79,6.79,0,0,1-9.59,0m9.542-9.543a6.713,6.713,0,1,0,0,9.494,6.721,6.721,0,0,0,0-9.494" transform="translate(1874.057 -2109.548)" fill="#f9564f"/>
    <path id="Trazado_561" data-name="Trazado 561" d="M216.346,330.79a7.641,7.641,0,0,1-2.3,5.578,7.532,7.532,0,0,1-5.554,2.315H194.305a7.544,7.544,0,0,1-5.572-2.3,7.648,7.648,0,0,1-2.278-5.6V316.617a7.842,7.842,0,0,1,7.849-7.858H208.5a7.872,7.872,0,0,1,7.849,7.858Zm-7.324.01V316.643a.5.5,0,0,0-.558-.561H194.338a.494.494,0,0,0-.558.561V330.8a.494.494,0,0,0,.558.561h14.127a.494.494,0,0,0,.558-.561" transform="translate(1807.044 -2094.298)" fill="#44cfcb"/>
    <path id="Trazado_562" data-name="Trazado 562" d="M275.077,321.837a8.218,8.218,0,0,1-8.27,8.29H252.546v8.515h-7.324V308.648h21.585a8.248,8.248,0,0,1,8.27,8.256Zm-7.254-.039v-4.891q0-.936-1.016-.936H252.546V322.8h14.261a.894.894,0,0,0,1.016-1.006" transform="translate(1785.48 -2094.257)" fill="#44cfcb"/>
    <path id="Trazado_563" data-name="Trazado 563" d="M330.5,338.573H303.378V331.25h9.741V315.972H310.7v2.207h-7.323v-9.531l26.911.035v7.288h-9.847V331.25H330.5Z" transform="translate(1764.14 -2094.257)" fill="#44cfcb"/>
    <path id="Trazado_564" data-name="Trazado 564" d="M387.62,316.082H366.946q-.6,0-.6.556v3.334h21.2V327.3h-21.2v4.064h15.8v7.324l-23.056-.035V316.608a7.777,7.777,0,0,1,7.849-7.849H387.62Z" transform="translate(1743.694 -2094.298)" fill="#44cfcb"/>
    <path id="Trazado_565" data-name="Trazado 565" d="M443.862,338.643h-3.679a14.412,14.412,0,0,1-7.323-1.76l-11.353-6.58v8.34h-7.324V308.718h7.324v8.2l11.353-6.525a14.512,14.512,0,0,1,7.323-1.744h3.679v7.323h-3.329a10.512,10.512,0,0,0-5.292,1.514l-10.652,6.16,10.652,6.16a10.505,10.505,0,0,0,5.292,1.514h3.329Z" transform="translate(1723.481 -2094.257)" fill="#44cfcb"/>
    <path id="Trazado_566" data-name="Trazado 566" d="M499.856,338.634h-7.324v-5.607H477.29v5.607h-7.324v-11.3a9.467,9.467,0,0,1,.981-4.526,19.81,19.81,0,0,1,3.031-3.666l4.5-4.579a38.334,38.334,0,0,1,5.484-4.893q1.454-.858,5.169-.86h2.873a7.9,7.9,0,0,1,7.849,7.885Zm-7.324-12.93v-9a.5.5,0,0,0-.56-.563h-2.656a4.005,4.005,0,0,0-2.307.422q-.7.6-7.34,7.28A12.668,12.668,0,0,0,478.1,325.7Z" transform="translate(1703.011 -2094.318)" fill="#44cfcb"/>
    <path id="Trazado_567" data-name="Trazado 567" d="M241.037,431h-13.05V410.957H201.012V431h-13.05V377.677h13.05v20.231h26.974V377.677h13.05Z" transform="translate(1806.492 -2119.587)" fill="#34495e"/>
    <path id="Trazado_568" data-name="Trazado 568" d="M341.091,390.727H304.252q-1.063,0-1.062.99v5.941h37.776v13.05H303.19v7.243h28.16V431l-41.085-.062V391.663a13.859,13.859,0,0,1,13.987-13.986h36.839Z" transform="translate(1768.952 -2119.587)" fill="#34495e"/>
    <path id="Trazado_569" data-name="Trazado 569" d="M441.882,430.912h-13.05v-9.991H401.671v9.991h-13.05V410.782a16.862,16.862,0,0,1,1.748-8.064,35.321,35.321,0,0,1,5.4-6.533l8.023-8.158q7.18-7.188,9.772-8.72t9.21-1.531h5.12a14.071,14.071,0,0,1,13.986,14.049Zm-13.05-23.041V391.828a.884.884,0,0,0-1-1H423.1q-3.24,0-4.111.752-1.245,1.065-13.08,12.973a22.567,22.567,0,0,0-2.8,3.321Z" transform="translate(1732.861 -2119.623)" fill="#34495e"/>
    <path id="Trazado_570" data-name="Trazado 570" d="M536.285,430.928h-30.72a13.964,13.964,0,0,1-14.049-14.049v-39.4h13.05v39.4a.883.883,0,0,0,1,1h30.72Z" transform="translate(1695.104 -2119.514)" fill="#34495e"/>
    <path id="Trazado_571" data-name="Trazado 571" d="M621.946,390.529h-16.3v40.4H592.6v-40.4h-5.558v4.059h-13.05V377.6l47.954-.125Z" transform="translate(1664.839 -2119.514)" fill="#34495e"/>
    <path id="Trazado_572" data-name="Trazado 572" d="M716.151,431H703.1V410.957H676.127V431h-13.05V377.677h13.05v20.231H703.1V377.677h13.05Z" transform="translate(1632.15 -2119.587)" fill="#34495e"/>
  </g>
</svg>
