<svg xmlns="http://www.w3.org/2000/svg" width="353.115" height="97.801" viewBox="0 0 353.115 97.801">
  <g id="Grupo_445" data-name="Grupo 445" transform="translate(-1875.464 1449.996)">
    <path id="Trazado_611" data-name="Trazado 611" d="M15.648,956.054a7.488,7.488,0,0,1,5.359-12.745c.167,0,.336.006.5.018a6.836,6.836,0,0,0,7.206-7.937,9.547,9.547,0,0,1-.127-1.624,9.366,9.366,0,0,1,15.98-6.571l.058.058a9.3,9.3,0,0,1,2.693,6.633,9.638,9.638,0,0,1-.056.987,6.835,6.835,0,0,0,1.565,5.144q.19.226.4.433a6.836,6.836,0,0,0,4.4,1.988,5.963,5.963,0,0,1,3.884,1.757l.042.042a6.067,6.067,0,0,1-8.608,8.551l-.039-.039a5.987,5.987,0,0,1-1.7-3.615,6.837,6.837,0,0,0-1.965-4.123,6.942,6.942,0,0,0-.651-.574,6.839,6.839,0,0,0-5.2-1.352,9.648,9.648,0,0,1-3-.022,6.836,6.836,0,0,0-7.939,7.212A7.484,7.484,0,0,1,15.7,956.1Z" transform="translate(1870.51 -2320.227)" fill="#44cfcb"/>
    <path id="Trazado_612" data-name="Trazado 612" d="M15.651,956.105l-.047-.047a7.523,7.523,0,0,1,5.384-12.8c.168,0,.337.006.5.018a6.8,6.8,0,0,0,7.17-7.9,9.613,9.613,0,0,1-.127-1.629,9.4,9.4,0,0,1,16.038-6.6l.058.058a9.339,9.339,0,0,1,2.7,6.657,9.679,9.679,0,0,1-.057.99,6.832,6.832,0,0,0,1.557,5.118c.125.148.258.293.4.43a6.792,6.792,0,0,0,4.381,1.978,6,6,0,0,1,3.906,1.767l.042.042a6.1,6.1,0,0,1-8.656,8.6l-.039-.039a6.026,6.026,0,0,1-1.715-3.635A6.8,6.8,0,0,0,39.37,943.1a9.664,9.664,0,0,1-3.01-.022,6.8,6.8,0,0,0-7.9,7.176,7.519,7.519,0,0,1-12.81,5.851m0-.095.046.047a7.449,7.449,0,0,0,12.694-5.8,6.869,6.869,0,0,1,7.979-7.247,9.6,9.6,0,0,0,2.988.022,6.87,6.87,0,0,1,7.857,6.079,5.958,5.958,0,0,0,1.7,3.594l.039.039a6.032,6.032,0,0,0,8.559-8.5l-.042-.042a5.928,5.928,0,0,0-3.862-1.747,6.866,6.866,0,0,1-4.426-2c-.139-.139-.273-.286-.4-.435a6.9,6.9,0,0,1-1.573-5.169,9.558,9.558,0,0,0,.056-.984,9.272,9.272,0,0,0-2.684-6.608l-.058-.058A9.332,9.332,0,0,0,28.6,933.748a9.541,9.541,0,0,0,.126,1.617,6.869,6.869,0,0,1-7.241,7.976c-.165-.011-.333-.017-.5-.017a7.459,7.459,0,0,0-5.335,12.686" transform="translate(1870.53 -2320.208)" fill="#44cfcb"/>
    <path id="Trazado_613" data-name="Trazado 613" d="M87.04,931.645a9.366,9.366,0,0,1,6.623-15.989,9.728,9.728,0,0,1,.991.051,6.835,6.835,0,0,0,7.526-6.408,6.066,6.066,0,1,1,6.732,6.376,6.835,6.835,0,0,0-6,7.856,9.64,9.64,0,0,1,0,3,6.838,6.838,0,0,0,1.721,5.7c.064.07.13.139.2.205a6.834,6.834,0,0,0,5.345,1.983,7.489,7.489,0,1,1-6.9,6.988,6.836,6.836,0,0,0-1.988-5.258q-.131-.131-.27-.256a6.837,6.837,0,0,0-5.726-1.647,9.6,9.6,0,0,1-1.628.138,9.305,9.305,0,0,1-6.622-2.743" transform="translate(1844.531 -2312.568)" fill="#44cfcb"/>
    <path id="Trazado_614" data-name="Trazado 614" d="M87,931.649A9.4,9.4,0,0,1,93.643,915.6a9.812,9.812,0,0,1,1,.051,6.8,6.8,0,0,0,7.488-6.376,6.1,6.1,0,1,1,6.769,6.412,6.8,6.8,0,0,0-5.968,7.817,9.682,9.682,0,0,1,0,3.011,6.762,6.762,0,0,0,1.711,5.675c.063.069.13.138.2.2a6.793,6.793,0,0,0,5.318,1.973,7.523,7.523,0,1,1-6.929,7.019,6.8,6.8,0,0,0-1.978-5.232c-.087-.087-.177-.172-.268-.255a6.765,6.765,0,0,0-5.7-1.639,9.607,9.607,0,0,1-1.634.139A9.337,9.337,0,0,1,87,931.649m25.48-26.282a6.026,6.026,0,0,0-10.282,3.914,6.869,6.869,0,0,1-7.562,6.44,9.693,9.693,0,0,0-.988-.051,9.332,9.332,0,0,0,0,18.664,9.591,9.591,0,0,0,1.622-.138,6.831,6.831,0,0,1,5.755,1.655c.092.083.184.169.271.257a6.871,6.871,0,0,1,2,5.284,7.455,7.455,0,1,0,6.866-6.955,6.862,6.862,0,0,1-5.371-1.992c-.068-.068-.134-.137-.2-.206a6.832,6.832,0,0,1-1.729-5.733,9.6,9.6,0,0,0,0-2.989,6.87,6.87,0,0,1,6.029-7.9,5.954,5.954,0,0,0,3.588-1.723,6.04,6.04,0,0,0,0-8.531" transform="translate(1844.551 -2312.549)" fill="#44cfcb"/>
    <path id="Trazado_615" data-name="Trazado 615" d="M79.965,886.045a9.306,9.306,0,0,1-2.743-6.623,9.714,9.714,0,0,1,.051-.991,6.838,6.838,0,0,0-1.6-5.133q-.178-.209-.371-.4a6.835,6.835,0,0,0-4.442-1.99,6.066,6.066,0,1,1,6.376-6.732,6.835,6.835,0,0,0,7.856,6,9.639,9.639,0,0,1,3,0,6.836,6.836,0,0,0,7.892-7.262,7.489,7.489,0,1,1,6.988,6.9,6.835,6.835,0,0,0-7.161,7.985,9.589,9.589,0,0,1,.139,1.627,9.366,9.366,0,0,1-15.989,6.623" transform="translate(1851.556 -2294.687)" fill="#44cfcb"/>
    <path id="Trazado_616" data-name="Trazado 616" d="M79.921,886.05a9.336,9.336,0,0,1-2.753-6.647,9.788,9.788,0,0,1,.051-.995,6.833,6.833,0,0,0-1.587-5.107c-.116-.137-.241-.271-.369-.4a6.792,6.792,0,0,0-4.42-1.98,6.1,6.1,0,1,1,4.669-10.4,6.027,6.027,0,0,1,1.743,3.629,6.8,6.8,0,0,0,7.817,5.968,9.708,9.708,0,0,1,3.011,0,6.8,6.8,0,0,0,7.852-7.226,7.524,7.524,0,1,1,7.02,6.929,6.8,6.8,0,0,0-7.126,7.944,9.609,9.609,0,0,1,.139,1.633,9.4,9.4,0,0,1-16.047,6.647m-4.611-13.2c.13.13.255.265.373.4a6.9,6.9,0,0,1,1.6,5.159,9.821,9.821,0,0,0-.05.987,9.332,9.332,0,1,0,18.664,0,9.533,9.533,0,0,0-.138-1.621,6.869,6.869,0,0,1,7.2-8.025A7.455,7.455,0,1,0,96,862.891a6.869,6.869,0,0,1-7.932,7.3,9.575,9.575,0,0,0-1.5-.117,9.422,9.422,0,0,0-1.486.115,6.9,6.9,0,0,1-5.237-1.326,6.781,6.781,0,0,1-.689-.6,6.886,6.886,0,0,1-1.97-4.1,5.959,5.959,0,0,0-1.724-3.589,6.032,6.032,0,1,0-4.617,10.282,6.864,6.864,0,0,1,4.464,2" transform="translate(1851.576 -2294.667)" fill="#44cfcb"/>
    <path id="Trazado_617" data-name="Trazado 617" d="M21.7,899.657a6.074,6.074,0,0,1,0-8.579,5.986,5.986,0,0,1,3.608-1.733,6.835,6.835,0,0,0,6-7.856,9.691,9.691,0,0,1,0-3,6.833,6.833,0,0,0-1.721-5.7c-.064-.07-.13-.139-.2-.206a6.835,6.835,0,0,0-5.345-1.982,7.489,7.489,0,1,1,6.9-6.988,6.836,6.836,0,0,0,1.988,5.258q.131.131.27.256a6.836,6.836,0,0,0,5.726,1.647,9.6,9.6,0,0,1,1.628-.139,9.366,9.366,0,1,1,0,18.732,9.738,9.738,0,0,1-.991-.051,6.835,6.835,0,0,0-7.525,6.408,6.061,6.061,0,0,1-10.34,3.936" transform="translate(1869.597 -2294.978)" fill="#44cfcb"/>
    <path id="Trazado_618" data-name="Trazado 618" d="M21.653,899.662a6.108,6.108,0,0,1,0-8.628,6.025,6.025,0,0,1,3.629-1.743,6.8,6.8,0,0,0,5.968-7.817,9.708,9.708,0,0,1,0-3.011,6.764,6.764,0,0,0-1.712-5.676c-.063-.069-.129-.137-.2-.2a6.8,6.8,0,0,0-5.318-1.973,7.523,7.523,0,1,1,6.929-7.019,6.8,6.8,0,0,0,1.979,5.232c.087.087.177.173.268.255a6.763,6.763,0,0,0,5.7,1.639,9.662,9.662,0,0,1,1.633-.139,9.4,9.4,0,1,1,0,18.8,9.829,9.829,0,0,1-1-.051,6.8,6.8,0,0,0-7.488,6.376,6.094,6.094,0,0,1-10.4,3.958m7.741-27.127c.067.067.134.137.2.206a6.833,6.833,0,0,1,1.729,5.733,9.622,9.622,0,0,0,0,2.989,6.87,6.87,0,0,1-6.029,7.9,5.958,5.958,0,0,0-3.588,1.723A6.033,6.033,0,1,0,31.983,895.7a6.871,6.871,0,0,1,7.563-6.441,9.667,9.667,0,0,0,.988.051,9.332,9.332,0,1,0,0-18.664,9.521,9.521,0,0,0-1.621.138,6.833,6.833,0,0,1-5.755-1.655c-.092-.083-.184-.17-.272-.257a6.872,6.872,0,0,1-2-5.284,7.455,7.455,0,1,0-6.866,6.955,6.862,6.862,0,0,1,5.371,1.992" transform="translate(1869.616 -2294.958)" fill="#44cfcb"/>
    <path id="Trazado_619" data-name="Trazado 619" d="M77.124,918.014a6.747,6.747,0,1,1,0-9.542,6.748,6.748,0,0,1,0,9.542" transform="translate(1851.39 -2313.635)" fill="#f9564f"/>
    <path id="Trazado_620" data-name="Trazado 620" d="M67.54,918.02a6.781,6.781,0,1,1,9.59,0,6.79,6.79,0,0,1-9.59,0m9.542-9.542a6.713,6.713,0,1,0,0,9.493,6.72,6.72,0,0,0,0-9.493" transform="translate(1851.408 -2313.617)" fill="#f9564f"/>
    <path id="Trazado_621" data-name="Trazado 621" d="M53.681,853.756a6.747,6.747,0,1,1,0-9.542,6.748,6.748,0,0,1,0,9.542" transform="translate(1859.992 -2290.056)" fill="#f9564f"/>
    <path id="Trazado_622" data-name="Trazado 622" d="M44.1,853.763a6.781,6.781,0,1,1,9.59,0,6.79,6.79,0,0,1-9.59,0m9.542-9.542a6.713,6.713,0,1,0,0,9.493,6.72,6.72,0,0,0,0-9.493" transform="translate(1860.01 -2290.038)" fill="#f9564f"/>
    <path id="Trazado_623" data-name="Trazado 623" d="M104.138,850.53a6.747,6.747,0,1,1,0-9.542,6.748,6.748,0,0,1,0,9.542" transform="translate(1841.477 -2288.872)" fill="#f9564f"/>
    <path id="Trazado_624" data-name="Trazado 624" d="M94.554,850.536a6.781,6.781,0,1,1,9.59,0,6.79,6.79,0,0,1-9.59,0m9.542-9.543a6.713,6.713,0,1,0,0,9.493,6.72,6.72,0,0,0,0-9.493" transform="translate(1841.495 -2288.854)" fill="#f9564f"/>
    <path id="Trazado_625" data-name="Trazado 625" d="M143.815,891.794a6.747,6.747,0,1,1,0-9.542,6.748,6.748,0,0,1,0,9.542" transform="translate(1826.918 -2304.014)" fill="#f9564f"/>
    <path id="Trazado_626" data-name="Trazado 626" d="M134.23,891.8a6.781,6.781,0,1,1,9.59,0,6.79,6.79,0,0,1-9.59,0m9.542-9.542a6.713,6.713,0,1,0,0,9.493,6.72,6.72,0,0,0,0-9.493" transform="translate(1826.936 -2303.996)" fill="#f9564f"/>
    <path id="Trazado_627" data-name="Trazado 627" d="M144.6,937.506a6.747,6.747,0,1,1,0-9.542,6.748,6.748,0,0,1,0,9.542" transform="translate(1826.629 -2320.788)" fill="#f9564f"/>
    <path id="Trazado_628" data-name="Trazado 628" d="M135.018,937.512a6.781,6.781,0,1,1,9.59,0,6.79,6.79,0,0,1-9.59,0m9.542-9.543a6.713,6.713,0,1,0,0,9.493,6.721,6.721,0,0,0,0-9.493" transform="translate(1826.647 -2320.77)" fill="#f9564f"/>
    <path id="Trazado_629" data-name="Trazado 629" d="M100.324,983.441a6.747,6.747,0,1,1,0-9.542,6.748,6.748,0,0,1,0,9.542" transform="translate(1842.877 -2337.643)" fill="#f9564f"/>
    <path id="Trazado_630" data-name="Trazado 630" d="M90.739,983.448a6.781,6.781,0,1,1,9.59,0,6.791,6.791,0,0,1-9.59,0m9.543-9.542a6.713,6.713,0,1,0,0,9.493,6.721,6.721,0,0,0,0-9.493" transform="translate(1842.895 -2337.625)" fill="#f9564f"/>
    <path id="Trazado_631" data-name="Trazado 631" d="M52.729,981.538a6.747,6.747,0,1,1,0-9.542,6.748,6.748,0,0,1,0,9.542" transform="translate(1860.342 -2336.945)" fill="#f9564f"/>
    <path id="Trazado_632" data-name="Trazado 632" d="M43.145,981.544a6.781,6.781,0,1,1,9.59,0,6.79,6.79,0,0,1-9.59,0M52.687,972a6.713,6.713,0,1,0,0,9.493,6.72,6.72,0,0,0,0-9.493" transform="translate(1860.36 -2336.927)" fill="#f9564f"/>
    <path id="Trazado_633" data-name="Trazado 633" d="M11.567,940.376a6.747,6.747,0,1,1,0-9.542,6.748,6.748,0,0,1,0,9.542" transform="translate(1875.446 -2321.841)" fill="#f9564f"/>
    <path id="Trazado_634" data-name="Trazado 634" d="M1.983,940.383a6.781,6.781,0,1,1,9.59,0,6.79,6.79,0,0,1-9.59,0m9.542-9.542a6.713,6.713,0,1,0,0,9.493,6.72,6.72,0,0,0,0-9.493" transform="translate(1875.464 -2321.823)" fill="#f9564f"/>
    <path id="Trazado_635" data-name="Trazado 635" d="M15.4,892.036a6.747,6.747,0,1,1,0-9.542,6.748,6.748,0,0,1,0,9.542" transform="translate(1874.039 -2304.103)" fill="#f9564f"/>
    <path id="Trazado_636" data-name="Trazado 636" d="M5.818,892.042a6.781,6.781,0,1,1,9.59,0,6.79,6.79,0,0,1-9.59,0M15.36,882.5a6.713,6.713,0,1,0,0,9.493,6.72,6.72,0,0,0,0-9.493" transform="translate(1874.057 -2304.084)" fill="#f9564f"/>
    <path id="Trazado_637" data-name="Trazado 637" d="M216.346,860.939a7.641,7.641,0,0,1-2.3,5.578,7.532,7.532,0,0,1-5.554,2.315H194.305a7.544,7.544,0,0,1-5.572-2.3,7.647,7.647,0,0,1-2.278-5.6V846.766a7.842,7.842,0,0,1,7.849-7.858H208.5a7.872,7.872,0,0,1,7.849,7.858Zm-7.324.01V846.792a.5.5,0,0,0-.558-.561H194.338a.494.494,0,0,0-.558.561v14.156a.494.494,0,0,0,.558.561h14.127a.494.494,0,0,0,.558-.561" transform="translate(1807.044 -2288.834)" fill="#44cfcb"/>
    <path id="Trazado_638" data-name="Trazado 638" d="M275.077,851.986a8.219,8.219,0,0,1-8.27,8.29H252.546v8.515h-7.324V838.8h21.585a8.248,8.248,0,0,1,8.27,8.256Zm-7.254-.039v-4.891q0-.936-1.016-.936H252.546v6.833h14.261a.894.894,0,0,0,1.016-1.006" transform="translate(1785.48 -2288.793)" fill="#44cfcb"/>
    <path id="Trazado_639" data-name="Trazado 639" d="M330.5,868.721H303.378V861.4h9.741V846.12H310.7v2.207h-7.323V838.8l26.911.035v7.288h-9.847V861.4H330.5Z" transform="translate(1764.14 -2288.793)" fill="#44cfcb"/>
    <path id="Trazado_640" data-name="Trazado 640" d="M387.62,846.231H366.946q-.6,0-.6.556v3.334h21.2v7.324h-21.2v4.064h15.8v7.324L359.1,868.8v-22.04a7.778,7.778,0,0,1,7.849-7.849H387.62Z" transform="translate(1743.694 -2288.834)" fill="#44cfcb"/>
    <path id="Trazado_641" data-name="Trazado 641" d="M443.862,868.792h-3.679a14.413,14.413,0,0,1-7.323-1.76l-11.353-6.58v8.34h-7.324V838.867h7.324v8.2l11.353-6.525a14.512,14.512,0,0,1,7.323-1.744h3.679v7.323h-3.329a10.512,10.512,0,0,0-5.292,1.514l-10.652,6.16,10.652,6.16a10.506,10.506,0,0,0,5.292,1.514h3.329Z" transform="translate(1723.481 -2288.793)" fill="#44cfcb"/>
    <path id="Trazado_642" data-name="Trazado 642" d="M499.856,868.782h-7.324v-5.607H477.29v5.607h-7.324v-11.3a9.468,9.468,0,0,1,.981-4.526,19.81,19.81,0,0,1,3.031-3.666l4.5-4.578a38.319,38.319,0,0,1,5.484-4.894q1.454-.858,5.169-.86h2.873a7.9,7.9,0,0,1,7.849,7.885Zm-7.324-12.93v-9a.5.5,0,0,0-.56-.563h-2.656a4.006,4.006,0,0,0-2.307.422q-.7.6-7.34,7.28a12.665,12.665,0,0,0-1.573,1.864Z" transform="translate(1703.011 -2288.854)" fill="#44cfcb"/>
    <path id="Trazado_643" data-name="Trazado 643" d="M242.247,931.129A14.646,14.646,0,0,1,227.511,945.9H202.1v15.173h-13.05V907.627h38.463a14.7,14.7,0,0,1,14.736,14.712Zm-12.925-.068v-8.715q0-1.668-1.811-1.668H202.1v12.176h25.413a1.592,1.592,0,0,0,1.811-1.792" transform="translate(1806.093 -2314.05)" fill="#34495e"/>
    <path id="Trazado_644" data-name="Trazado 644" d="M338.427,920.875H301.588q-1.063,0-1.062.99v5.941H338.3v13.05H300.526V948.1h28.16v13.05l-41.085-.062V921.811a13.859,13.859,0,0,1,13.987-13.986h36.839Z" transform="translate(1769.93 -2314.123)" fill="#34495e"/>
    <path id="Trazado_645" data-name="Trazado 645" d="M428.98,920.678h-16.3v40.4h-13.05v-40.4h-5.558v4.058h-13.05V907.753l47.954-.125Z" transform="translate(1735.647 -2314.051)" fill="#34495e"/>
    <path id="Trazado_646" data-name="Trazado 646" d="M523.991,935.038a20.289,20.289,0,0,1-.312,4.309,9.986,9.986,0,0,1-2.56,3.684l-13.675,13.924a16.04,16.04,0,0,1-4.371,3.559,20.238,20.238,0,0,1-5.432.438h-25.1V947.9h24.414l7.181-7.118H473.414q-3.933,0-5.869-2.248a6.754,6.754,0,0,1-1.873-4.62,19.87,19.87,0,0,1,.562-4.933,12.651,12.651,0,0,1,2.872-4.059l13.425-14.049a12.567,12.567,0,0,1,3.372-2.747,12.328,12.328,0,0,1,4.246-.5H516.81v13.05H492.458l-7.18,7.056h30.345q4.308,0,6.182,1.436,2.185,1.685,2.185,5.869" transform="translate(1704.588 -2314.05)" fill="#34495e"/>
  </g>
</svg>
