<svg xmlns="http://www.w3.org/2000/svg" width="717.589" height="100" viewBox="0 0 717.589 97.802">
  <g id="Grupo_448" data-name="Grupo 448" transform="translate(-1875.464 1981)">
    <path id="Trazado_494" data-name="Trazado 494" d="M15.648,117.257a7.488,7.488,0,0,1,5.359-12.745c.167,0,.336.006.5.018a6.836,6.836,0,0,0,7.206-7.937,9.546,9.546,0,0,1-.127-1.624A9.366,9.366,0,0,1,44.568,88.4l.058.058a9.3,9.3,0,0,1,2.693,6.633,9.638,9.638,0,0,1-.056.987,6.835,6.835,0,0,0,1.565,5.144q.19.226.4.432a6.833,6.833,0,0,0,4.4,1.988,5.963,5.963,0,0,1,3.884,1.757l.042.042a6.067,6.067,0,0,1-8.608,8.551l-.039-.039a5.987,5.987,0,0,1-1.7-3.615,6.837,6.837,0,0,0-1.965-4.123,6.943,6.943,0,0,0-.651-.574,6.839,6.839,0,0,0-5.2-1.352,9.648,9.648,0,0,1-3-.022,6.837,6.837,0,0,0-7.939,7.212A7.484,7.484,0,0,1,15.7,117.3Z" transform="translate(1870.51 -2012.433)" fill="#44cfcb"/>
    <path id="Trazado_495" data-name="Trazado 495" d="M15.651,117.308l-.047-.047a7.523,7.523,0,0,1,5.384-12.8c.168,0,.337.006.5.018a6.8,6.8,0,0,0,7.17-7.9,9.618,9.618,0,0,1-.127-1.629,9.4,9.4,0,0,1,16.038-6.6l.058.058a9.339,9.339,0,0,1,2.7,6.657,9.678,9.678,0,0,1-.057.99,6.832,6.832,0,0,0,1.557,5.118c.125.148.258.293.4.43a6.792,6.792,0,0,0,4.381,1.978,6,6,0,0,1,3.906,1.767l.042.042A6.1,6.1,0,0,1,48.9,114l-.039-.039a6.026,6.026,0,0,1-1.715-3.635,6.822,6.822,0,0,0-1.955-4.1,6.754,6.754,0,0,0-.648-.57A6.834,6.834,0,0,0,39.37,104.3a9.665,9.665,0,0,1-3.01-.022,6.8,6.8,0,0,0-7.9,7.176,7.519,7.519,0,0,1-12.81,5.851m0-.095.046.047a7.449,7.449,0,0,0,12.694-5.8,6.869,6.869,0,0,1,7.979-7.247,9.6,9.6,0,0,0,2.988.022,6.87,6.87,0,0,1,7.857,6.079,5.958,5.958,0,0,0,1.7,3.594l.039.039a6.032,6.032,0,0,0,8.559-8.5l-.042-.042a5.928,5.928,0,0,0-3.862-1.747,6.864,6.864,0,0,1-4.426-2c-.139-.139-.273-.285-.4-.435a6.9,6.9,0,0,1-1.573-5.169,9.557,9.557,0,0,0,.056-.984,9.271,9.271,0,0,0-2.684-6.608l-.058-.058A9.332,9.332,0,0,0,28.6,94.951a9.542,9.542,0,0,0,.126,1.617,6.869,6.869,0,0,1-7.241,7.976c-.165-.011-.333-.017-.5-.018a7.46,7.46,0,0,0-5.335,12.687" transform="translate(1870.53 -2012.414)" fill="#44cfcb"/>
    <path id="Trazado_496" data-name="Trazado 496" d="M87.04,92.848a9.366,9.366,0,0,1,6.623-15.989,9.733,9.733,0,0,1,.991.051A6.836,6.836,0,0,0,102.18,70.5a6.066,6.066,0,1,1,6.732,6.376,6.835,6.835,0,0,0-6,7.856,9.639,9.639,0,0,1,0,3,6.838,6.838,0,0,0,1.721,5.7q.1.1.2.205a6.834,6.834,0,0,0,5.345,1.983,7.489,7.489,0,1,1-6.9,6.988,6.836,6.836,0,0,0-1.988-5.258q-.131-.131-.27-.256a6.837,6.837,0,0,0-5.726-1.647,9.6,9.6,0,0,1-1.628.138,9.305,9.305,0,0,1-6.622-2.743" transform="translate(1844.531 -2004.774)" fill="#44cfcb"/>
    <path id="Trazado_497" data-name="Trazado 497" d="M87,92.852a9.4,9.4,0,0,1,6.647-16.047,9.819,9.819,0,0,1,1,.051,6.8,6.8,0,0,0,7.488-6.376,6.1,6.1,0,1,1,6.769,6.412,6.8,6.8,0,0,0-5.968,7.817,9.682,9.682,0,0,1,0,3.011,6.762,6.762,0,0,0,1.711,5.675c.063.069.13.138.2.2a6.793,6.793,0,0,0,5.318,1.973,7.523,7.523,0,1,1-6.929,7.019,6.8,6.8,0,0,0-1.978-5.232c-.087-.087-.177-.172-.268-.254a6.765,6.765,0,0,0-5.7-1.639,9.6,9.6,0,0,1-1.634.139A9.337,9.337,0,0,1,87,92.852m25.48-26.282a6.026,6.026,0,0,0-10.282,3.914,6.869,6.869,0,0,1-7.562,6.44,9.68,9.68,0,0,0-.988-.051,9.332,9.332,0,0,0,0,18.664,9.593,9.593,0,0,0,1.622-.138,6.831,6.831,0,0,1,5.755,1.655c.092.083.184.169.271.257a6.871,6.871,0,0,1,2,5.284,7.455,7.455,0,1,0,6.866-6.955,6.862,6.862,0,0,1-5.371-1.992c-.068-.068-.134-.137-.2-.206a6.832,6.832,0,0,1-1.729-5.733,9.6,9.6,0,0,0,0-2.989,6.87,6.87,0,0,1,6.029-7.9,5.954,5.954,0,0,0,3.588-1.723,6.04,6.04,0,0,0,0-8.531" transform="translate(1844.551 -2004.755)" fill="#44cfcb"/>
    <path id="Trazado_498" data-name="Trazado 498" d="M79.965,47.248a9.306,9.306,0,0,1-2.743-6.623,9.723,9.723,0,0,1,.051-.991,6.836,6.836,0,0,0-1.6-5.133q-.178-.21-.371-.4a6.835,6.835,0,0,0-4.442-1.99,6.066,6.066,0,1,1,6.376-6.732,6.835,6.835,0,0,0,7.856,6,9.639,9.639,0,0,1,3,0,6.836,6.836,0,0,0,7.892-7.262,7.489,7.489,0,1,1,6.988,6.9A6.835,6.835,0,0,0,95.815,39a9.588,9.588,0,0,1,.139,1.627,9.366,9.366,0,0,1-15.989,6.623" transform="translate(1851.556 -1986.893)" fill="#44cfcb"/>
    <path id="Trazado_499" data-name="Trazado 499" d="M79.921,47.253a9.336,9.336,0,0,1-2.753-6.647,9.788,9.788,0,0,1,.051-.995A6.833,6.833,0,0,0,75.631,34.5c-.116-.137-.241-.272-.369-.4a6.8,6.8,0,0,0-4.42-1.98,6.1,6.1,0,1,1,6.412-6.77,6.8,6.8,0,0,0,7.817,5.968,9.708,9.708,0,0,1,3.011,0A6.8,6.8,0,0,0,95.935,24.1a7.523,7.523,0,1,1,7.02,6.929,6.8,6.8,0,0,0-7.126,7.945,9.6,9.6,0,0,1,.139,1.633,9.4,9.4,0,0,1-16.047,6.646m-4.611-13.2c.13.13.255.266.373.4a6.9,6.9,0,0,1,1.6,5.159,9.811,9.811,0,0,0-.05.987,9.332,9.332,0,0,0,18.664,0,9.529,9.529,0,0,0-.138-1.622,6.87,6.87,0,0,1,7.2-8.025A7.454,7.454,0,1,0,96,24.094a6.869,6.869,0,0,1-7.932,7.3,9.648,9.648,0,0,0-2.989,0,6.9,6.9,0,0,1-5.237-1.326,6.782,6.782,0,0,1-.689-.6,6.888,6.888,0,0,1-1.97-4.1,5.959,5.959,0,0,0-1.724-3.588,6.032,6.032,0,1,0-4.617,10.282,6.86,6.86,0,0,1,4.464,2" transform="translate(1851.576 -1986.873)" fill="#44cfcb"/>
    <path id="Trazado_500" data-name="Trazado 500" d="M21.7,60.86a6.074,6.074,0,0,1,0-8.579,5.986,5.986,0,0,1,3.608-1.733,6.835,6.835,0,0,0,6-7.856,9.691,9.691,0,0,1,0-3,6.833,6.833,0,0,0-1.721-5.7q-.1-.105-.2-.206A6.835,6.835,0,0,0,24.044,31.8a7.489,7.489,0,1,1,6.9-6.988A6.836,6.836,0,0,0,32.93,30.07q.131.131.27.256a6.836,6.836,0,0,0,5.726,1.647,9.6,9.6,0,0,1,1.628-.139,9.366,9.366,0,1,1,0,18.732,9.742,9.742,0,0,1-.991-.051,6.835,6.835,0,0,0-7.525,6.408A6.061,6.061,0,0,1,21.7,60.86" transform="translate(1869.597 -1987.184)" fill="#44cfcb"/>
    <path id="Trazado_501" data-name="Trazado 501" d="M21.653,60.865a6.108,6.108,0,0,1,0-8.628,6.025,6.025,0,0,1,3.629-1.743,6.8,6.8,0,0,0,5.968-7.817,9.72,9.72,0,0,1-.116-1.5,9.622,9.622,0,0,1,.119-1.514,6.764,6.764,0,0,0-1.712-5.676c-.063-.069-.129-.137-.2-.2a6.8,6.8,0,0,0-5.318-1.973,7.523,7.523,0,1,1,6.929-7.019,6.8,6.8,0,0,0,1.979,5.232c.087.087.177.173.268.254a6.763,6.763,0,0,0,5.7,1.639,9.662,9.662,0,0,1,1.633-.139,9.4,9.4,0,1,1,0,18.8,9.8,9.8,0,0,1-1-.051,6.8,6.8,0,0,0-7.488,6.376,6.094,6.094,0,0,1-10.4,3.958m7.741-27.127c.067.067.134.137.2.206a6.833,6.833,0,0,1,1.729,5.733,9.622,9.622,0,0,0,0,2.989,6.87,6.87,0,0,1-6.029,7.9A5.958,5.958,0,0,0,21.7,52.285,6.033,6.033,0,1,0,31.983,56.9a6.871,6.871,0,0,1,7.563-6.441,9.673,9.673,0,0,0,.988.051,9.332,9.332,0,1,0,0-18.664,9.521,9.521,0,0,0-1.621.138,6.833,6.833,0,0,1-5.755-1.655c-.092-.083-.184-.17-.272-.257a6.872,6.872,0,0,1-2-5.284,7.455,7.455,0,1,0-6.866,6.955,6.862,6.862,0,0,1,5.371,1.992" transform="translate(1869.616 -1987.164)" fill="#44cfcb"/>
    <path id="Trazado_502" data-name="Trazado 502" d="M77.124,79.217a6.747,6.747,0,1,1,0-9.542,6.748,6.748,0,0,1,0,9.542" transform="translate(1851.39 -2005.841)" fill="#f9564f"/>
    <path id="Trazado_503" data-name="Trazado 503" d="M67.54,79.223a6.781,6.781,0,1,1,9.59,0,6.79,6.79,0,0,1-9.59,0m9.542-9.542a6.713,6.713,0,1,0,0,9.493,6.72,6.72,0,0,0,0-9.493" transform="translate(1851.408 -2005.823)" fill="#f9564f"/>
    <path id="Trazado_504" data-name="Trazado 504" d="M53.681,14.959a6.747,6.747,0,1,1,0-9.542,6.748,6.748,0,0,1,0,9.542" transform="translate(1859.992 -1982.262)" fill="#f9564f"/>
    <path id="Trazado_505" data-name="Trazado 505" d="M44.1,14.966a6.781,6.781,0,1,1,9.59,0,6.79,6.79,0,0,1-9.59,0m9.542-9.542a6.713,6.713,0,1,0,0,9.493,6.72,6.72,0,0,0,0-9.493" transform="translate(1860.01 -1982.244)" fill="#f9564f"/>
    <path id="Trazado_506" data-name="Trazado 506" d="M104.138,11.733a6.747,6.747,0,1,1,0-9.542,6.748,6.748,0,0,1,0,9.542" transform="translate(1841.477 -1981.078)" fill="#f9564f"/>
    <path id="Trazado_507" data-name="Trazado 507" d="M94.554,11.739a6.781,6.781,0,1,1,9.59,0,6.79,6.79,0,0,1-9.59,0M104.1,2.2a6.713,6.713,0,1,0,0,9.493,6.72,6.72,0,0,0,0-9.493" transform="translate(1841.495 -1981.06)" fill="#f9564f"/>
    <path id="Trazado_508" data-name="Trazado 508" d="M143.815,53a6.747,6.747,0,1,1,0-9.542,6.748,6.748,0,0,1,0,9.542" transform="translate(1826.918 -1996.22)" fill="#f9564f"/>
    <path id="Trazado_509" data-name="Trazado 509" d="M134.23,53a6.781,6.781,0,1,1,9.59,0,6.79,6.79,0,0,1-9.59,0m9.542-9.542a6.713,6.713,0,1,0,0,9.493,6.72,6.72,0,0,0,0-9.493" transform="translate(1826.936 -1996.202)" fill="#f9564f"/>
    <path id="Trazado_510" data-name="Trazado 510" d="M144.6,98.709a6.747,6.747,0,1,1,0-9.542,6.748,6.748,0,0,1,0,9.542" transform="translate(1826.629 -2012.994)" fill="#f9564f"/>
    <path id="Trazado_511" data-name="Trazado 511" d="M135.018,98.715a6.781,6.781,0,1,1,9.59,0,6.79,6.79,0,0,1-9.59,0m9.542-9.542a6.713,6.713,0,1,0,0,9.493,6.72,6.72,0,0,0,0-9.493" transform="translate(1826.647 -2012.976)" fill="#f9564f"/>
    <path id="Trazado_512" data-name="Trazado 512" d="M100.324,144.644a6.747,6.747,0,1,1,0-9.542,6.748,6.748,0,0,1,0,9.542" transform="translate(1842.877 -2029.849)" fill="#f9564f"/>
    <path id="Trazado_513" data-name="Trazado 513" d="M90.739,144.651a6.781,6.781,0,1,1,9.59,0,6.791,6.791,0,0,1-9.59,0m9.543-9.542a6.713,6.713,0,1,0,0,9.493,6.72,6.72,0,0,0,0-9.493" transform="translate(1842.895 -2029.832)" fill="#f9564f"/>
    <path id="Trazado_514" data-name="Trazado 514" d="M52.729,142.74a6.747,6.747,0,1,1,0-9.542,6.748,6.748,0,0,1,0,9.542" transform="translate(1860.342 -2029.151)" fill="#f9564f"/>
    <path id="Trazado_515" data-name="Trazado 515" d="M43.145,142.747a6.781,6.781,0,1,1,9.59,0,6.79,6.79,0,0,1-9.59,0m9.542-9.542a6.713,6.713,0,1,0,0,9.493,6.72,6.72,0,0,0,0-9.493" transform="translate(1860.36 -2029.133)" fill="#f9564f"/>
    <path id="Trazado_516" data-name="Trazado 516" d="M11.567,101.579a6.747,6.747,0,1,1,0-9.542,6.748,6.748,0,0,1,0,9.542" transform="translate(1875.446 -2014.047)" fill="#f9564f"/>
    <path id="Trazado_517" data-name="Trazado 517" d="M1.983,101.585a6.781,6.781,0,1,1,9.59,0,6.79,6.79,0,0,1-9.59,0m9.542-9.542a6.713,6.713,0,1,0,0,9.493,6.72,6.72,0,0,0,0-9.493" transform="translate(1875.464 -2014.029)" fill="#f9564f"/>
    <path id="Trazado_518" data-name="Trazado 518" d="M15.4,53.238a6.747,6.747,0,1,1,0-9.542,6.748,6.748,0,0,1,0,9.542" transform="translate(1874.039 -1996.308)" fill="#f9564f"/>
    <path id="Trazado_519" data-name="Trazado 519" d="M5.818,53.245a6.781,6.781,0,1,1,9.59,0,6.79,6.79,0,0,1-9.59,0M15.36,43.7a6.713,6.713,0,1,0,0,9.493,6.72,6.72,0,0,0,0-9.493" transform="translate(1874.057 -1996.291)" fill="#f9564f"/>
    <path id="Trazado_520" data-name="Trazado 520" d="M216.346,22.141a7.643,7.643,0,0,1-2.3,5.579,7.534,7.534,0,0,1-5.554,2.314H194.305a7.544,7.544,0,0,1-5.572-2.3,7.648,7.648,0,0,1-2.278-5.6V7.968a7.58,7.58,0,0,1,2.3-5.56,7.56,7.56,0,0,1,5.554-2.3H208.5a7.577,7.577,0,0,1,5.536,2.3,7.55,7.55,0,0,1,2.313,5.56Zm-7.324.009V7.994a.5.5,0,0,0-.558-.561H194.338a.494.494,0,0,0-.558.561V22.15a.5.5,0,0,0,.558.562h14.127a.5.5,0,0,0,.558-.562" transform="translate(1807.044 -1981.04)" fill="#44cfcb"/>
    <path id="Trazado_521" data-name="Trazado 521" d="M275.077,13.189a8.023,8.023,0,0,1-2.4,5.877,7.958,7.958,0,0,1-5.869,2.414H252.546v8.515h-7.324V0h21.585a7.979,7.979,0,0,1,5.852,2.414,7.952,7.952,0,0,1,2.418,5.842Zm-7.254-.039V8.259q0-.936-1.016-.936H252.546v6.833h14.261a.894.894,0,0,0,1.016-1.006" transform="translate(1785.48 -1980.999)" fill="#44cfcb"/>
    <path id="Trazado_522" data-name="Trazado 522" d="M330.5,29.924H303.378V22.6h9.741V7.323H310.7V9.53h-7.323V0l26.911.035V7.323h-9.847V22.6H330.5Z" transform="translate(1764.14 -1980.999)" fill="#44cfcb"/>
    <path id="Trazado_523" data-name="Trazado 523" d="M387.62,7.434H366.946q-.6,0-.6.556v3.334h21.2v7.324h-21.2v4.064h15.8v7.324L359.1,30V7.959a7.578,7.578,0,0,1,2.278-5.572A7.579,7.579,0,0,1,366.946.11H387.62Z" transform="translate(1743.694 -1981.04)" fill="#44cfcb"/>
    <path id="Trazado_524" data-name="Trazado 524" d="M443.862,29.994h-3.679a14.412,14.412,0,0,1-7.323-1.759l-11.353-6.58v8.339h-7.324V.07h7.324v8.2L432.86,1.744A14.512,14.512,0,0,1,440.183,0h3.679V7.323h-3.329a10.512,10.512,0,0,0-5.292,1.514L424.59,15l10.652,6.16a10.505,10.505,0,0,0,5.292,1.514h3.329Z" transform="translate(1723.481 -1980.999)" fill="#44cfcb"/>
    <path id="Trazado_525" data-name="Trazado 525" d="M499.856,29.985h-7.324V24.378H477.29v5.607h-7.324v-11.3a9.468,9.468,0,0,1,.981-4.526,19.831,19.831,0,0,1,3.031-3.666l4.5-4.579a38.334,38.334,0,0,1,5.484-4.894q1.454-.858,5.169-.86h2.873a7.553,7.553,0,0,1,5.536,2.313,7.593,7.593,0,0,1,2.313,5.572Zm-7.324-12.93v-9a.5.5,0,0,0-.56-.563h-2.656a4.005,4.005,0,0,0-2.307.422q-.7.6-7.34,7.28a12.668,12.668,0,0,0-1.573,1.864Z" transform="translate(1703.011 -1981.06)" fill="#44cfcb"/>
    <path id="Trazado_526" data-name="Trazado 526" d="M249.177,107.855a13.189,13.189,0,0,1-.187,2.529,6.337,6.337,0,0,1-1.307,2.341q-1.62,2.249-3.238,4.433-3.175,4.183-4.484,4.745a13.221,13.221,0,0,1-3.923.375h-5.854a10.8,10.8,0,0,1-4.079-.5,10.1,10.1,0,0,1-2.834-3.018q-1.433-1.949-4.3-5.846-1.557,2.263-3.052,4.463-2.927,3.96-4.2,4.432a15.04,15.04,0,0,1-4.576.471H202.1a11.677,11.677,0,0,1-4.035-.437,9.441,9.441,0,0,1-2.963-2.935q-2.4-2.934-5.547-7.43a8.347,8.347,0,0,1-.5-3.372V68.83H202.1v34.85a7.708,7.708,0,0,0,.124,1.777,5.817,5.817,0,0,0,.993,1.466l1.987,2.369,6.269-8.1A5.41,5.41,0,0,0,212.4,99.5a17.817,17.817,0,0,0,.063-1.994V68.83h13.05V97.509a9.193,9.193,0,0,0,.158,2.152,6.362,6.362,0,0,0,1.105,1.714l6.193,8.1q1.326-1.558,3.032-3.927a5.18,5.18,0,0,0,.127-1.559V68.83h13.05Z" transform="translate(1806.093 -2006.256)" fill="#34495e"/>
    <path id="Trazado_527" data-name="Trazado 527" d="M354.012,82.078h-36.84q-1.063,0-1.062.99v5.941h37.776v13.05H316.11V109.3h28.16v13.05l-41.085-.062V83.014a13.859,13.859,0,0,1,13.987-13.986h36.84Z" transform="translate(1764.211 -2006.329)" fill="#34495e"/>
    <path id="Trazado_528" data-name="Trazado 528" d="M459.5,99.141l-3.31,13.46a12.436,12.436,0,0,1-4.527,6.869,12.033,12.033,0,0,1-7.649,2.809l-42.771-.063V68.956q4.87-.124,34.28-.125a9.6,9.6,0,0,1,7.18,2.926,9.747,9.747,0,0,1,3,7.157v9.773h5.87a7.962,7.962,0,0,1,8.241,8.138,8.677,8.677,0,0,1-.311,2.316M433.4,82.005H414.3v6.681H433.4Zm12.208,20.042H414.3v7.181h29.481Z" transform="translate(1728.228 -2006.256)" fill="#34495e"/>
    <path id="Trazado_529" data-name="Trazado 529" d="M612.971,88.157q0,6.626-1.561,9.314-1.373,2.251-8.8,9.752-3.932,4-7.93,8a30.408,30.408,0,0,1-6.619,5.376,16.964,16.964,0,0,1-8.116,1.75H560.084V69.028h38.838a13.609,13.609,0,0,1,9.9,4.095,13.407,13.407,0,0,1,4.152,9.909Zm-13.049-.272V83.077a.883.883,0,0,0-1-1h-25.79V109.3h4.111a11.222,11.222,0,0,0,5.046-1,15.836,15.836,0,0,0,4.049-3.247q4.921-4.683,12.833-13.05.746-.874.748-4.121" transform="translate(1669.943 -2006.329)" fill="#34495e"/>
    <path id="Trazado_530" data-name="Trazado 530" d="M709.76,82.078H672.921q-1.063,0-1.062.99v5.941h37.776v13.05H671.859V109.3h28.16v13.05l-41.085-.062V83.014a13.859,13.859,0,0,1,13.987-13.986H709.76Z" transform="translate(1633.67 -2006.329)" fill="#34495e"/>
    <path id="Trazado_531" data-name="Trazado 531" d="M810.085,96.242a20.289,20.289,0,0,1-.312,4.309,9.986,9.986,0,0,1-2.56,3.684l-13.675,13.924a16.041,16.041,0,0,1-4.371,3.559,20.242,20.242,0,0,1-5.432.437h-25.1V109.1h24.414l7.181-7.118H759.508q-3.933,0-5.869-2.248a6.755,6.755,0,0,1-1.873-4.62,19.87,19.87,0,0,1,.562-4.933,12.651,12.651,0,0,1,2.872-4.059l13.425-14.049A12.555,12.555,0,0,1,772,69.33a12.326,12.326,0,0,1,4.246-.5H802.9v13.05H778.552l-7.18,7.056h30.345q4.308,0,6.182,1.436,2.185,1.685,2.185,5.869" transform="translate(1599.606 -2006.257)" fill="#34495e"/>
    <path id="Trazado_532" data-name="Trazado 532" d="M905.752,122.155H857.423V109.1h17.358V81.881h-4.309v3.934h-13.05V68.831l47.954.062V81.881H887.831V109.1h17.921Z" transform="translate(1560.835 -2006.257)" fill="#34495e"/>
    <path id="Trazado_533" data-name="Trazado 533" d="M1000.47,89.446v32.905H961.4a13.465,13.465,0,0,1-9.94-4.095,13.62,13.62,0,0,1-4.064-9.971v-5.064q0-6.563,1.5-9.22t8.554-9.783l8.18-8.064a31.9,31.9,0,0,1,6.619-5.377,16.584,16.584,0,0,1,8.055-1.75h19.98V86.136h-13.05V82.078h-4.121a11.126,11.126,0,0,0-4.995,1,19.33,19.33,0,0,0-4.059,3.31Q969,91.195,961.2,99.436q-.749.937-.75,4.121V108.3a.883.883,0,0,0,1,1H987.42V102.5H977.3V89.446Z" transform="translate(1527.82 -2006.329)" fill="#34495e"/>
    <path id="Trazado_534" data-name="Trazado 534" d="M1102.736,122.289l-12.114.063a4.785,4.785,0,0,1-3.746-1.936,32.084,32.084,0,0,1-2.5-3.684L1063.024,82.14h-.375v40.212H1049.6V75.778q0-4.062,1.752-5.5,1.563-1.249,5.5-1.249h8a12.323,12.323,0,0,1,5.535.905q1.656.906,3.783,4.34l15.51,25.226V69.028h13.05Z" transform="translate(1490.317 -2006.329)" fill="#34495e"/>
  </g>
</svg>
