<svg xmlns="http://www.w3.org/2000/svg" width="95.525" height="119.407" viewBox="0 0 95.525 119.407">
  <path id="docs_24dp_E3E3E3_FILL0_wght400_GRAD0_opsz24" d="M183.881-814.326h47.763v-11.941H183.881Zm0,17.911h47.763v-11.941H183.881Zm0,17.911h29.852v-11.941H183.881Zm-11.941,17.911a11.5,11.5,0,0,1-8.433-3.508A11.5,11.5,0,0,1,160-772.534v-95.525a11.5,11.5,0,0,1,3.508-8.433A11.5,11.5,0,0,1,171.941-880H219.7l35.822,35.822v71.644a11.5,11.5,0,0,1-3.508,8.433,11.5,11.5,0,0,1-8.433,3.508Zm41.792-77.614v-29.852H171.941v95.525h71.644v-65.674Zm-41.792-29.852v0Z" transform="translate(-160 880)" fill="#44cfcb"/>
</svg>
