<svg xmlns="http://www.w3.org/2000/svg" width="83.585" height="95.525" viewBox="0 0 83.585 95.525">
  <path id="sports_score_24dp_E3E3E3_FILL0_wght400_GRAD0_opsz24" d="M223.881-788.059h11.941V-800H223.881Zm23.881,0V-800H259.7v11.941ZM223.881-740.3v-11.941h11.941V-740.3Zm47.763-23.881v-11.941h11.941v11.941Zm0,23.881v-11.941h11.941V-740.3Zm-23.881,0v-11.941H259.7V-740.3Zm23.881-47.763V-800h11.941v11.941Zm-35.822,11.941v-11.941h11.941v11.941ZM200-704.475V-800h11.941v11.941h11.941v11.941H211.941v11.941h11.941v11.941H211.941v47.763Zm59.7-47.763v-11.941h11.941v11.941Zm-23.881,0v-11.941h11.941v11.941Zm-11.941-11.941v-11.941h11.941v11.941Zm23.881,0v-11.941H259.7v11.941ZM259.7-776.119v-11.941h11.941v11.941Z" transform="translate(-200 800)" fill="#44cfcb"/>
</svg>
