<svg xmlns="http://www.w3.org/2000/svg" width="86.57" height="119.407" viewBox="0 0 86.57 119.407">
  <path id="emoji_objects_24dp_E3E3E3_FILL0_wght400_GRAD0_opsz24" d="M233.285-760.593a13.453,13.453,0,0,1-7.015-1.866,13.564,13.564,0,0,1-4.926-5,11.5,11.5,0,0,1-8.433-3.508A11.5,11.5,0,0,1,209.4-779.4v-21.195a43.25,43.25,0,0,1-14.1-15.374,42.071,42.071,0,0,1-5.3-20.747,41.751,41.751,0,0,1,12.612-30.673A41.751,41.751,0,0,1,233.285-880a41.751,41.751,0,0,1,30.673,12.612,41.751,41.751,0,0,1,12.612,30.673,41.823,41.823,0,0,1-5.3,20.9,43.632,43.632,0,0,1-14.1,15.224V-779.4a11.5,11.5,0,0,1-3.508,8.433,11.5,11.5,0,0,1-8.433,3.508,13.564,13.564,0,0,1-4.926,5A13.453,13.453,0,0,1,233.285-760.593ZM221.344-779.4h23.881v-5.373H221.344Zm0-11.344h23.881v-5.672H221.344Zm-1.194-17.612h8.657v-16.12l-13.135-13.135,6.269-6.269,11.344,11.344,11.344-11.344,6.269,6.269-13.135,13.135v16.12h8.657a32.688,32.688,0,0,0,13.135-11.418,29.647,29.647,0,0,0,5.075-16.941,30.255,30.255,0,0,0-9.1-22.24,30.255,30.255,0,0,0-22.24-9.1,30.255,30.255,0,0,0-22.24,9.1,30.255,30.255,0,0,0-9.1,22.24,29.648,29.648,0,0,0,5.075,16.941A32.688,32.688,0,0,0,220.15-808.356ZM233.285-832.536ZM233.285-838.208Z" transform="translate(-190 880)" fill="#44cfcb"/>
</svg>
