<svg xmlns="http://www.w3.org/2000/svg" width="130.75" height="107.466" viewBox="0 0 130.75 107.466">
  <path id="engineering_24dp_E3E3E3_FILL0_wght400_GRAD0_opsz24" d="M42-732.534v-16.717a18,18,0,0,1,2.537-9.254,16.548,16.548,0,0,1,7.015-6.567,93.471,93.471,0,0,1,17.165-6.567,77.58,77.58,0,0,1,21.045-2.687,77.58,77.58,0,0,1,21.045,2.687,93.471,93.471,0,0,1,17.165,6.567,16.548,16.548,0,0,1,7.015,6.567,18,18,0,0,1,2.537,9.254v16.717Zm11.941-11.941h71.644v-4.776a5.612,5.612,0,0,0-.821-2.985,5.81,5.81,0,0,0-2.164-2.09,98.124,98.124,0,0,0-13.806-5.373,62.576,62.576,0,0,0-19.03-2.687,62.576,62.576,0,0,0-19.03,2.687,98.124,98.124,0,0,0-13.806,5.373,5.81,5.81,0,0,0-2.164,2.09,5.612,5.612,0,0,0-.821,2.985ZM89.763-780.3A23,23,0,0,1,72.9-787.312a23,23,0,0,1-7.015-16.866H64.389A2.926,2.926,0,0,1,62.225-805a2.926,2.926,0,0,1-.821-2.164,2.926,2.926,0,0,1,.821-2.164,2.926,2.926,0,0,1,2.164-.821h1.493a22.721,22.721,0,0,1,3.284-12.09,24.443,24.443,0,0,1,8.657-8.508v5.672a2.926,2.926,0,0,0,.821,2.164,2.926,2.926,0,0,0,2.164.821,2.926,2.926,0,0,0,2.164-.821,2.926,2.926,0,0,0,.821-2.164v-8.06a16.865,16.865,0,0,1,2.836-.672,21.128,21.128,0,0,1,3.134-.224,21.128,21.128,0,0,1,3.134.224,16.865,16.865,0,0,1,2.836.672v8.06a2.926,2.926,0,0,0,.821,2.164,2.926,2.926,0,0,0,2.164.821,2.926,2.926,0,0,0,2.164-.821,2.926,2.926,0,0,0,.821-2.164v-5.672a24.443,24.443,0,0,1,8.657,8.508,22.721,22.721,0,0,1,3.284,12.09h1.493a2.926,2.926,0,0,1,2.164.821,2.926,2.926,0,0,1,.821,2.164A2.926,2.926,0,0,1,117.3-805a2.926,2.926,0,0,1-2.164.821h-1.493a23,23,0,0,1-7.015,16.866A23,23,0,0,1,89.763-780.3Zm0-11.941a11.5,11.5,0,0,0,8.433-3.508,11.5,11.5,0,0,0,3.508-8.433H77.822a11.5,11.5,0,0,0,3.508,8.433A11.5,11.5,0,0,0,89.763-792.237Zm44.778,23.881-.9-4.478a17.567,17.567,0,0,1-1.716-.672,5.379,5.379,0,0,1-1.567-1.119l-4.179,1.493-2.985-5.373,3.284-2.985v-3.582l-3.284-2.985,2.985-5.373,4.179,1.493a5.682,5.682,0,0,1,1.493-1.045,13.672,13.672,0,0,1,1.791-.746l.9-4.478h5.97l.9,4.478a13.672,13.672,0,0,1,1.791.746,5.682,5.682,0,0,1,1.493,1.045l4.179-1.493,2.985,5.373-3.284,2.985v3.582l3.284,2.985-2.985,5.373-4.179-1.493a5.379,5.379,0,0,1-1.567,1.119,17.567,17.567,0,0,1-1.716.672l-.9,4.478Zm2.985-10.448a4.3,4.3,0,0,0,3.134-1.343A4.3,4.3,0,0,0,142-783.282a4.3,4.3,0,0,0-1.343-3.134,4.3,4.3,0,0,0-3.134-1.343,4.3,4.3,0,0,0-3.134,1.343,4.3,4.3,0,0,0-1.343,3.134,4.3,4.3,0,0,0,1.343,3.134A4.3,4.3,0,0,0,137.525-778.8Zm10.747-19.4-1.194-6.269a12.372,12.372,0,0,1-2.463-1.119,10.407,10.407,0,0,1-2.015-1.567l-6.269,2.09-4.179-7.164,5.075-4.478a3.44,3.44,0,0,1-.3-1.194V-820.3a3.44,3.44,0,0,1,.3-1.194l-5.075-4.478,4.179-7.164,6.269,2.09a10.407,10.407,0,0,1,2.015-1.567,12.376,12.376,0,0,1,2.463-1.119L148.272-840h8.358l1.194,6.269a12.375,12.375,0,0,1,2.463,1.119,10.407,10.407,0,0,1,2.015,1.567l6.269-2.09,4.179,7.164-5.075,4.478a3.44,3.44,0,0,1,.3,1.194v2.388a3.44,3.44,0,0,1-.3,1.194l5.075,4.478-4.179,7.164-6.269-2.09a10.407,10.407,0,0,1-2.015,1.567,12.372,12.372,0,0,1-2.463,1.119l-1.194,6.269Zm4.179-13.433a7.206,7.206,0,0,0,5.3-2.164,7.206,7.206,0,0,0,2.164-5.3,7.206,7.206,0,0,0-2.164-5.3,7.206,7.206,0,0,0-5.3-2.164,7.206,7.206,0,0,0-5.3,2.164,7.206,7.206,0,0,0-2.164,5.3,7.206,7.206,0,0,0,2.164,5.3A7.206,7.206,0,0,0,152.451-811.641ZM89.763-744.475Z" transform="translate(-42 840)" fill="#44cfcb"/>
</svg>
