<svg xmlns="http://www.w3.org/2000/svg" width="100" height="100" viewBox="0 0 100 100">
  <g id="Grupo_448" data-name="Grupo 448" transform="translate(-1875.464 1981)">
    <path id="Trazado_494" data-name="Trazado 494" d="M15.648,117.257a7.488,7.488,0,0,1,5.359-12.745c.167,0,.336.006.5.018a6.836,6.836,0,0,0,7.206-7.937,9.546,9.546,0,0,1-.127-1.624A9.366,9.366,0,0,1,44.568,88.4l.058.058a9.3,9.3,0,0,1,2.693,6.633,9.638,9.638,0,0,1-.056.987,6.835,6.835,0,0,0,1.565,5.144q.19.226.4.432a6.833,6.833,0,0,0,4.4,1.988,5.963,5.963,0,0,1,3.884,1.757l.042.042a6.067,6.067,0,0,1-8.608,8.551l-.039-.039a5.987,5.987,0,0,1-1.7-3.615,6.837,6.837,0,0,0-1.965-4.123,6.943,6.943,0,0,0-.651-.574,6.839,6.839,0,0,0-5.2-1.352,9.648,9.648,0,0,1-3-.022,6.837,6.837,0,0,0-7.939,7.212A7.484,7.484,0,0,1,15.7,117.3Z" transform="translate(1870.51 -2012.433)" fill="#44cfcb"/>
    <path id="Trazado_495" data-name="Trazado 495" d="M15.651,117.308l-.047-.047a7.523,7.523,0,0,1,5.384-12.8c.168,0,.337.006.5.018a6.8,6.8,0,0,0,7.17-7.9,9.618,9.618,0,0,1-.127-1.629,9.4,9.4,0,0,1,16.038-6.6l.058.058a9.339,9.339,0,0,1,2.7,6.657,9.678,9.678,0,0,1-.057.99,6.832,6.832,0,0,0,1.557,5.118c.125.148.258.293.4.43a6.792,6.792,0,0,0,4.381,1.978,6,6,0,0,1,3.906,1.767l.042.042A6.1,6.1,0,0,1,48.9,114l-.039-.039a6.026,6.026,0,0,1-1.715-3.635,6.822,6.822,0,0,0-1.955-4.1,6.754,6.754,0,0,0-.648-.57A6.834,6.834,0,0,0,39.37,104.3a9.665,9.665,0,0,1-3.01-.022,6.8,6.8,0,0,0-7.9,7.176,7.519,7.519,0,0,1-12.81,5.851m0-.095.046.047a7.449,7.449,0,0,0,12.694-5.8,6.869,6.869,0,0,1,7.979-7.247,9.6,9.6,0,0,0,2.988.022,6.87,6.87,0,0,1,7.857,6.079,5.958,5.958,0,0,0,1.7,3.594l.039.039a6.032,6.032,0,0,0,8.559-8.5l-.042-.042a5.928,5.928,0,0,0-3.862-1.747,6.864,6.864,0,0,1-4.426-2c-.139-.139-.273-.285-.4-.435a6.9,6.9,0,0,1-1.573-5.169,9.557,9.557,0,0,0,.056-.984,9.271,9.271,0,0,0-2.684-6.608l-.058-.058A9.332,9.332,0,0,0,28.6,94.951a9.542,9.542,0,0,0,.126,1.617,6.869,6.869,0,0,1-7.241,7.976c-.165-.011-.333-.017-.5-.018a7.46,7.46,0,0,0-5.335,12.687" transform="translate(1870.53 -2012.414)" fill="#44cfcb"/>
    <path id="Trazado_496" data-name="Trazado 496" d="M87.04,92.848a9.366,9.366,0,0,1,6.623-15.989,9.733,9.733,0,0,1,.991.051A6.836,6.836,0,0,0,102.18,70.5a6.066,6.066,0,1,1,6.732,6.376,6.835,6.835,0,0,0-6,7.856,9.639,9.639,0,0,1,0,3,6.838,6.838,0,0,0,1.721,5.7q.1.1.2.205a6.834,6.834,0,0,0,5.345,1.983,7.489,7.489,0,1,1-6.9,6.988,6.836,6.836,0,0,0-1.988-5.258q-.131-.131-.27-.256a6.837,6.837,0,0,0-5.726-1.647,9.6,9.6,0,0,1-1.628.138,9.305,9.305,0,0,1-6.622-2.743" transform="translate(1844.531 -2004.774)" fill="#44cfcb"/>
    <path id="Trazado_497" data-name="Trazado 497" d="M87,92.852a9.4,9.4,0,0,1,6.647-16.047,9.819,9.819,0,0,1,1,.051,6.8,6.8,0,0,0,7.488-6.376,6.1,6.1,0,1,1,6.769,6.412,6.8,6.8,0,0,0-5.968,7.817,9.682,9.682,0,0,1,0,3.011,6.762,6.762,0,0,0,1.711,5.675c.063.069.13.138.2.2a6.793,6.793,0,0,0,5.318,1.973,7.523,7.523,0,1,1-6.929,7.019,6.8,6.8,0,0,0-1.978-5.232c-.087-.087-.177-.172-.268-.254a6.765,6.765,0,0,0-5.7-1.639,9.6,9.6,0,0,1-1.634.139A9.337,9.337,0,0,1,87,92.852m25.48-26.282a6.026,6.026,0,0,0-10.282,3.914,6.869,6.869,0,0,1-7.562,6.44,9.68,9.68,0,0,0-.988-.051,9.332,9.332,0,0,0,0,18.664,9.593,9.593,0,0,0,1.622-.138,6.831,6.831,0,0,1,5.755,1.655c.092.083.184.169.271.257a6.871,6.871,0,0,1,2,5.284,7.455,7.455,0,1,0,6.866-6.955,6.862,6.862,0,0,1-5.371-1.992c-.068-.068-.134-.137-.2-.206a6.832,6.832,0,0,1-1.729-5.733,9.6,9.6,0,0,0,0-2.989,6.87,6.87,0,0,1,6.029-7.9,5.954,5.954,0,0,0,3.588-1.723,6.04,6.04,0,0,0,0-8.531" transform="translate(1844.551 -2004.755)" fill="#44cfcb"/>
    <path id="Trazado_498" data-name="Trazado 498" d="M79.965,47.248a9.306,9.306,0,0,1-2.743-6.623,9.723,9.723,0,0,1,.051-.991,6.836,6.836,0,0,0-1.6-5.133q-.178-.21-.371-.4a6.835,6.835,0,0,0-4.442-1.99,6.066,6.066,0,1,1,6.376-6.732,6.835,6.835,0,0,0,7.856,6,9.639,9.639,0,0,1,3,0,6.836,6.836,0,0,0,7.892-7.262,7.489,7.489,0,1,1,6.988,6.9A6.835,6.835,0,0,0,95.815,39a9.588,9.588,0,0,1,.139,1.627,9.366,9.366,0,0,1-15.989,6.623" transform="translate(1851.556 -1986.893)" fill="#44cfcb"/>
    <path id="Trazado_499" data-name="Trazado 499" d="M79.921,47.253a9.336,9.336,0,0,1-2.753-6.647,9.788,9.788,0,0,1,.051-.995A6.833,6.833,0,0,0,75.631,34.5c-.116-.137-.241-.272-.369-.4a6.8,6.8,0,0,0-4.42-1.98,6.1,6.1,0,1,1,6.412-6.77,6.8,6.8,0,0,0,7.817,5.968,9.708,9.708,0,0,1,3.011,0A6.8,6.8,0,0,0,95.935,24.1a7.523,7.523,0,1,1,7.02,6.929,6.8,6.8,0,0,0-7.126,7.945,9.6,9.6,0,0,1,.139,1.633,9.4,9.4,0,0,1-16.047,6.646m-4.611-13.2c.13.13.255.266.373.4a6.9,6.9,0,0,1,1.6,5.159,9.811,9.811,0,0,0-.05.987,9.332,9.332,0,0,0,18.664,0,9.529,9.529,0,0,0-.138-1.622,6.87,6.87,0,0,1,7.2-8.025A7.454,7.454,0,1,0,96,24.094a6.869,6.869,0,0,1-7.932,7.3,9.648,9.648,0,0,0-2.989,0,6.9,6.9,0,0,1-5.237-1.326,6.782,6.782,0,0,1-.689-.6,6.888,6.888,0,0,1-1.97-4.1,5.959,5.959,0,0,0-1.724-3.588,6.032,6.032,0,1,0-4.617,10.282,6.86,6.86,0,0,1,4.464,2" transform="translate(1851.576 -1986.873)" fill="#44cfcb"/>
    <path id="Trazado_500" data-name="Trazado 500" d="M21.7,60.86a6.074,6.074,0,0,1,0-8.579,5.986,5.986,0,0,1,3.608-1.733,6.835,6.835,0,0,0,6-7.856,9.691,9.691,0,0,1,0-3,6.833,6.833,0,0,0-1.721-5.7q-.1-.105-.2-.206A6.835,6.835,0,0,0,24.044,31.8a7.489,7.489,0,1,1,6.9-6.988A6.836,6.836,0,0,0,32.93,30.07q.131.131.27.256a6.836,6.836,0,0,0,5.726,1.647,9.6,9.6,0,0,1,1.628-.139,9.366,9.366,0,1,1,0,18.732,9.742,9.742,0,0,1-.991-.051,6.835,6.835,0,0,0-7.525,6.408A6.061,6.061,0,0,1,21.7,60.86" transform="translate(1869.597 -1987.184)" fill="#44cfcb"/>
    <path id="Trazado_501" data-name="Trazado 501" d="M21.653,60.865a6.108,6.108,0,0,1,0-8.628,6.025,6.025,0,0,1,3.629-1.743,6.8,6.8,0,0,0,5.968-7.817,9.72,9.72,0,0,1-.116-1.5,9.622,9.622,0,0,1,.119-1.514,6.764,6.764,0,0,0-1.712-5.676c-.063-.069-.129-.137-.2-.2a6.8,6.8,0,0,0-5.318-1.973,7.523,7.523,0,1,1,6.929-7.019,6.8,6.8,0,0,0,1.979,5.232c.087.087.177.173.268.254a6.763,6.763,0,0,0,5.7,1.639,9.662,9.662,0,0,1,1.633-.139,9.4,9.4,0,1,1,0,18.8,9.8,9.8,0,0,1-1-.051,6.8,6.8,0,0,0-7.488,6.376,6.094,6.094,0,0,1-10.4,3.958m7.741-27.127c.067.067.134.137.2.206a6.833,6.833,0,0,1,1.729,5.733,9.622,9.622,0,0,0,0,2.989,6.87,6.87,0,0,1-6.029,7.9A5.958,5.958,0,0,0,21.7,52.285,6.033,6.033,0,1,0,31.983,56.9a6.871,6.871,0,0,1,7.563-6.441,9.673,9.673,0,0,0,.988.051,9.332,9.332,0,1,0,0-18.664,9.521,9.521,0,0,0-1.621.138,6.833,6.833,0,0,1-5.755-1.655c-.092-.083-.184-.17-.272-.257a6.872,6.872,0,0,1-2-5.284,7.455,7.455,0,1,0-6.866,6.955,6.862,6.862,0,0,1,5.371,1.992" transform="translate(1869.616 -1987.164)" fill="#44cfcb"/>
    <path id="Trazado_502" data-name="Trazado 502" d="M77.124,79.217a6.747,6.747,0,1,1,0-9.542,6.748,6.748,0,0,1,0,9.542" transform="translate(1851.39 -2005.841)" fill="#f9564f"/>
    <path id="Trazado_503" data-name="Trazado 503" d="M67.54,79.223a6.781,6.781,0,1,1,9.59,0,6.79,6.79,0,0,1-9.59,0m9.542-9.542a6.713,6.713,0,1,0,0,9.493,6.72,6.72,0,0,0,0-9.493" transform="translate(1851.408 -2005.823)" fill="#f9564f"/>
    <path id="Trazado_504" data-name="Trazado 504" d="M53.681,14.959a6.747,6.747,0,1,1,0-9.542,6.748,6.748,0,0,1,0,9.542" transform="translate(1859.992 -1982.262)" fill="#f9564f"/>
    <path id="Trazado_505" data-name="Trazado 505" d="M44.1,14.966a6.781,6.781,0,1,1,9.59,0,6.79,6.79,0,0,1-9.59,0m9.542-9.542a6.713,6.713,0,1,0,0,9.493,6.72,6.72,0,0,0,0-9.493" transform="translate(1860.01 -1982.244)" fill="#f9564f"/>
    <path id="Trazado_506" data-name="Trazado 506" d="M104.138,11.733a6.747,6.747,0,1,1,0-9.542,6.748,6.748,0,0,1,0,9.542" transform="translate(1841.477 -1981.078)" fill="#f9564f"/>
    <path id="Trazado_507" data-name="Trazado 507" d="M94.554,11.739a6.781,6.781,0,1,1,9.59,0,6.79,6.79,0,0,1-9.59,0M104.1,2.2a6.713,6.713,0,1,0,0,9.493,6.72,6.72,0,0,0,0-9.493" transform="translate(1841.495 -1981.06)" fill="#f9564f"/>
    <path id="Trazado_508" data-name="Trazado 508" d="M143.815,53a6.747,6.747,0,1,1,0-9.542,6.748,6.748,0,0,1,0,9.542" transform="translate(1826.918 -1996.22)" fill="#f9564f"/>
    <path id="Trazado_509" data-name="Trazado 509" d="M134.23,53a6.781,6.781,0,1,1,9.59,0,6.79,6.79,0,0,1-9.59,0m9.542-9.542a6.713,6.713,0,1,0,0,9.493,6.72,6.72,0,0,0,0-9.493" transform="translate(1826.936 -1996.202)" fill="#f9564f"/>
    <path id="Trazado_510" data-name="Trazado 510" d="M144.6,98.709a6.747,6.747,0,1,1,0-9.542,6.748,6.748,0,0,1,0,9.542" transform="translate(1826.629 -2012.994)" fill="#f9564f"/>
    <path id="Trazado_511" data-name="Trazado 511" d="M135.018,98.715a6.781,6.781,0,1,1,9.59,0,6.79,6.79,0,0,1-9.59,0m9.542-9.542a6.713,6.713,0,1,0,0,9.493,6.72,6.72,0,0,0,0-9.493" transform="translate(1826.647 -2012.976)" fill="#f9564f"/>
    <path id="Trazado_512" data-name="Trazado 512" d="M100.324,144.644a6.747,6.747,0,1,1,0-9.542,6.748,6.748,0,0,1,0,9.542" transform="translate(1842.877 -2029.849)" fill="#f9564f"/>
    <path id="Trazado_513" data-name="Trazado 513" d="M90.739,144.651a6.781,6.781,0,1,1,9.59,0,6.791,6.791,0,0,1-9.59,0m9.543-9.542a6.713,6.713,0,1,0,0,9.493,6.72,6.72,0,0,0,0-9.493" transform="translate(1842.895 -2029.832)" fill="#f9564f"/>
    <path id="Trazado_514" data-name="Trazado 514" d="M52.729,142.74a6.747,6.747,0,1,1,0-9.542,6.748,6.748,0,0,1,0,9.542" transform="translate(1860.342 -2029.151)" fill="#f9564f"/>
    <path id="Trazado_515" data-name="Trazado 515" d="M43.145,142.747a6.781,6.781,0,1,1,9.59,0,6.79,6.79,0,0,1-9.59,0m9.542-9.542a6.713,6.713,0,1,0,0,9.493,6.72,6.72,0,0,0,0-9.493" transform="translate(1860.36 -2029.133)" fill="#f9564f"/>
    <path id="Trazado_516" data-name="Trazado 516" d="M11.567,101.579a6.747,6.747,0,1,1,0-9.542,6.748,6.748,0,0,1,0,9.542" transform="translate(1875.446 -2014.047)" fill="#f9564f"/>
    <path id="Trazado_517" data-name="Trazado 517" d="M1.983,101.585a6.781,6.781,0,1,1,9.59,0,6.79,6.79,0,0,1-9.59,0m9.542-9.542a6.713,6.713,0,1,0,0,9.493,6.72,6.72,0,0,0,0-9.493" transform="translate(1875.464 -2014.029)" fill="#f9564f"/>
    <path id="Trazado_518" data-name="Trazado 518" d="M15.4,53.238a6.747,6.747,0,1,1,0-9.542,6.748,6.748,0,0,1,0,9.542" transform="translate(1874.039 -1996.308)" fill="#f9564f"/>
    <path id="Trazado_519" data-name="Trazado 519" d="M5.818,53.245a6.781,6.781,0,1,1,9.59,0,6.79,6.79,0,0,1-9.59,0M15.36,43.7a6.713,6.713,0,1,0,0,9.493,6.72,6.72,0,0,0,0-9.493" transform="translate(1874.057 -1996.291)" fill="#f9564f"/>
  </g>
</svg>
