<svg xmlns="http://www.w3.org/2000/svg" xmlns:xlink="http://www.w3.org/1999/xlink" width="260" height="55.442" viewBox="0 0 260 55.442">
  <defs>
    <clipPath id="clip-path">
      <rect id="Rectángulo_9" data-name="Rectángulo 9" width="260" height="55.442" transform="translate(0 0)" fill="none"/>
    </clipPath>
  </defs>
  <g id="Grupo_12" data-name="Grupo 12" transform="translate(0 0)">
    <g id="Grupo_7" data-name="Grupo 7" transform="translate(0 0)" clip-path="url(#clip-path)">
      <path id="Trazado_65" data-name="Trazado 65" d="M9.621,71.137A4.25,4.25,0,0,1,12.662,63.9c.095,0,.191,0,.284.01a3.879,3.879,0,0,0,4.089-4.5,5.5,5.5,0,0,1-.072-.921,5.315,5.315,0,0,1,9.069-3.729l.033.033a5.283,5.283,0,0,1,1.529,3.764,5.469,5.469,0,0,1-.032.56,3.879,3.879,0,0,0,.888,2.919q.108.128.226.246a3.877,3.877,0,0,0,2.5,1.128,3.383,3.383,0,0,1,2.2,1l.024.024a3.443,3.443,0,0,1-4.884,4.853l-.022-.022a3.4,3.4,0,0,1-.968-2.052,3.879,3.879,0,0,0-4.437-3.432,5.472,5.472,0,0,1-1.7-.012,3.879,3.879,0,0,0-4.505,4.092,4.247,4.247,0,0,1-7.237,3.305Z" transform="translate(-3.552 -22.492)" fill="#44cfcb"/>
      <path id="Trazado_66" data-name="Trazado 66" d="M9.619,71.163l-.027-.027a4.269,4.269,0,0,1,3.056-7.266c.1,0,.191,0,.286.01A3.86,3.86,0,0,0,17,59.4a5.476,5.476,0,0,1-.072-.925,5.334,5.334,0,0,1,9.1-3.742l.033.033A5.3,5.3,0,0,1,27.6,58.543c0,.189-.012.378-.032.562a3.876,3.876,0,0,0,.883,2.9c.071.084.146.166.224.244a3.856,3.856,0,0,0,2.487,1.123,3.4,3.4,0,0,1,2.217,1l.024.024a3.462,3.462,0,0,1-4.912,4.88l-.022-.022a3.417,3.417,0,0,1-.973-2.063,3.872,3.872,0,0,0-1.11-2.328,3.833,3.833,0,0,0-.368-.324,3.877,3.877,0,0,0-2.938-.764,5.486,5.486,0,0,1-1.708-.013,3.86,3.86,0,0,0-4.483,4.072,4.267,4.267,0,0,1-7.27,3.321m0-.054.027.027a4.227,4.227,0,0,0,7.2-3.29,3.9,3.9,0,0,1,4.528-4.113,5.431,5.431,0,0,0,1.7.012,3.918,3.918,0,0,1,2.967.772,3.844,3.844,0,0,1,.371.327,3.91,3.91,0,0,1,1.121,2.351,3.38,3.38,0,0,0,.962,2.04l.021.022a3.423,3.423,0,0,0,4.857-4.825l-.024-.024a3.365,3.365,0,0,0-2.192-.991,3.894,3.894,0,0,1-2.511-1.134c-.079-.079-.155-.162-.226-.247a3.914,3.914,0,0,1-.892-2.933c.02-.184.031-.371.032-.558a5.261,5.261,0,0,0-1.523-3.751L26,54.759a5.3,5.3,0,0,0-9.035,3.715,5.456,5.456,0,0,0,.072.918,3.9,3.9,0,0,1-4.11,4.526c-.094-.006-.189-.01-.283-.01a4.233,4.233,0,0,0-3.028,7.2" transform="translate(-3.537 -22.478)" fill="#44cfcb"/>
      <path id="Trazado_67" data-name="Trazado 67" d="M54.017,56.141a5.315,5.315,0,0,1,3.759-9.074,5.534,5.534,0,0,1,.563.029,3.879,3.879,0,0,0,4.27-3.637,3.441,3.441,0,1,1,5.868,2.635,3.4,3.4,0,0,1-2.048.983,3.879,3.879,0,0,0-3.4,4.459,5.467,5.467,0,0,1,0,1.7A3.882,3.882,0,0,0,64,56.476c.037.039.074.079.112.116a3.878,3.878,0,0,0,3.033,1.125,4.25,4.25,0,1,1-3.914,3.965A3.879,3.879,0,0,0,62.1,58.7c-.05-.05-.1-.1-.153-.145a3.878,3.878,0,0,0-3.249-.935,5.468,5.468,0,0,1-.924.079,5.28,5.28,0,0,1-3.758-1.557" transform="translate(-22.176 -17.001)" fill="#44cfcb"/>
      <path id="Trazado_68" data-name="Trazado 68" d="M53.99,56.139a5.335,5.335,0,0,1,3.772-9.106,5.579,5.579,0,0,1,.565.029,3.86,3.86,0,0,0,4.249-3.618,3.461,3.461,0,1,1,5.9,2.65,3.418,3.418,0,0,1-2.06.989,3.859,3.859,0,0,0-3.386,4.436,5.53,5.53,0,0,1,.066.849,5.452,5.452,0,0,1-.068.86A3.836,3.836,0,0,0,64,56.448c.035.039.073.079.11.116a3.857,3.857,0,0,0,3.019,1.119A4.27,4.27,0,1,1,63.2,61.667,3.864,3.864,0,0,0,62.074,58.7c-.05-.049-.1-.1-.152-.144a3.837,3.837,0,0,0-3.233-.93,5.5,5.5,0,0,1-.927.079,5.3,5.3,0,0,1-3.772-1.563m14.46-14.915a3.42,3.42,0,0,0-5.835,2.221A3.9,3.9,0,0,1,58.323,47.1a5.492,5.492,0,0,0-.561-.029,5.3,5.3,0,1,0,0,10.592,5.42,5.42,0,0,0,.92-.079,3.879,3.879,0,0,1,3.266.94c.051.047.1.1.154.145a3.9,3.9,0,0,1,1.134,3,4.23,4.23,0,1,0,3.9-3.947,3.894,3.894,0,0,1-3.048-1.13c-.038-.038-.076-.078-.113-.117a3.877,3.877,0,0,1-.98-3.254,5.521,5.521,0,0,0,0-1.7,3.9,3.9,0,0,1,3.421-4.481,3.386,3.386,0,0,0,2.036-.978,3.429,3.429,0,0,0,0-4.842" transform="translate(-22.162 -16.987)" fill="#44cfcb"/>
      <path id="Trazado_69" data-name="Trazado 69" d="M48.952,27.59a5.28,5.28,0,0,1-1.557-3.759,5.506,5.506,0,0,1,.029-.562,3.88,3.88,0,0,0-.905-2.913q-.1-.119-.211-.228A3.879,3.879,0,0,0,43.787,19a3.443,3.443,0,1,1,3.619-3.82,3.878,3.878,0,0,0,4.458,3.4,5.467,5.467,0,0,1,1.7,0,3.878,3.878,0,0,0,4.478-4.121,4.25,4.25,0,1,1,3.965,3.914,3.879,3.879,0,0,0-4.063,4.532,5.452,5.452,0,0,1,.079.923,5.315,5.315,0,0,1-9.074,3.759" transform="translate(-17.14 -4.181)" fill="#44cfcb"/>
      <path id="Trazado_70" data-name="Trazado 70" d="M48.924,27.59a5.3,5.3,0,0,1-1.562-3.772,5.542,5.542,0,0,1,.029-.564,3.878,3.878,0,0,0-.9-2.9c-.066-.078-.137-.154-.21-.227A3.853,3.853,0,0,0,43.772,19a3.462,3.462,0,1,1,3.639-3.842,3.86,3.86,0,0,0,4.436,3.387,5.5,5.5,0,0,1,1.708,0,3.86,3.86,0,0,0,4.457-4.1A4.269,4.269,0,1,1,62,18.383a3.859,3.859,0,0,0-4.043,4.508,5.44,5.44,0,0,1,.079.927,5.335,5.335,0,0,1-9.107,3.772M46.308,20.1c.073.073.145.151.212.229a3.918,3.918,0,0,1,.91,2.928,5.461,5.461,0,0,0-.029.56,5.3,5.3,0,1,0,10.591,0,5.424,5.424,0,0,0-.078-.92A3.9,3.9,0,0,1,62,18.344a4.23,4.23,0,1,0-3.947-3.9,3.9,3.9,0,0,1-4.5,4.142,5.477,5.477,0,0,0-1.7,0,3.917,3.917,0,0,1-2.972-.753,3.789,3.789,0,0,1-.391-.342,3.915,3.915,0,0,1-1.118-2.326,3.379,3.379,0,0,0-.978-2.036,3.423,3.423,0,1,0-2.62,5.834A3.9,3.9,0,0,1,46.308,20.1" transform="translate(-17.126 -4.167)" fill="#44cfcb"/>
      <path id="Trazado_71" data-name="Trazado 71" d="M13.189,35.359a3.447,3.447,0,0,1,0-4.869,3.4,3.4,0,0,1,2.048-.984,3.879,3.879,0,0,0,3.4-4.458,5.5,5.5,0,0,1-.066-.846,5.408,5.408,0,0,1,.068-.856,3.881,3.881,0,0,0-.976-3.237c-.037-.04-.074-.079-.112-.117a3.879,3.879,0,0,0-3.033-1.125A4.25,4.25,0,1,1,18.435,14.9a3.88,3.88,0,0,0,1.129,2.984c.05.05.1.1.154.145a3.88,3.88,0,0,0,3.249.935,5.455,5.455,0,0,1,.924-.079,5.315,5.315,0,0,1,0,10.63,5.525,5.525,0,0,1-.563-.029,3.879,3.879,0,0,0-4.271,3.636,3.439,3.439,0,0,1-5.868,2.234" transform="translate(-4.206 -4.39)" fill="#44cfcb"/>
      <path id="Trazado_72" data-name="Trazado 72" d="M13.161,35.358a3.466,3.466,0,0,1,0-4.9,3.421,3.421,0,0,1,2.06-.989,3.859,3.859,0,0,0,3.387-4.436,5.507,5.507,0,0,1,0-1.709,3.839,3.839,0,0,0-.972-3.221c-.036-.039-.073-.078-.111-.115a3.854,3.854,0,0,0-3.018-1.12,4.269,4.269,0,1,1,3.932-3.983,3.862,3.862,0,0,0,1.123,2.969c.05.049.1.1.152.144a3.838,3.838,0,0,0,3.233.93,5.5,5.5,0,0,1,.927-.079,5.335,5.335,0,0,1,0,10.669,5.563,5.563,0,0,1-.565-.029,3.859,3.859,0,0,0-4.249,3.618,3.459,3.459,0,0,1-5.9,2.246m4.393-15.394c.038.038.076.077.113.117a3.877,3.877,0,0,1,.981,3.254,5.473,5.473,0,0,0,0,1.7,3.9,3.9,0,0,1-3.421,4.481,3.379,3.379,0,0,0-2.036.978,3.423,3.423,0,1,0,5.835,2.62,3.9,3.9,0,0,1,4.291-3.655,5.49,5.49,0,0,0,.561.028,5.3,5.3,0,1,0,0-10.591,5.479,5.479,0,0,0-.92.078,3.874,3.874,0,0,1-3.266-.939c-.053-.047-.1-.1-.154-.146a3.9,3.9,0,0,1-1.134-3,4.23,4.23,0,1,0-3.9,3.947,3.9,3.9,0,0,1,3.049,1.131" transform="translate(-4.192 -4.376)" fill="#44cfcb"/>
      <path id="Trazado_73" data-name="Trazado 73" d="M47.365,48.564a3.829,3.829,0,1,1,0-5.415,3.829,3.829,0,0,1,0,5.415" transform="translate(-17.259 -17.766)" fill="#f9564f"/>
      <path id="Trazado_74" data-name="Trazado 74" d="M41.923,48.565a3.848,3.848,0,1,1,5.443,0,3.853,3.853,0,0,1-5.443,0m5.415-5.415a3.81,3.81,0,1,0,0,5.388,3.814,3.814,0,0,0,0-5.388" transform="translate(-17.246 -17.753)" fill="#f9564f"/>
      <path id="Trazado_75" data-name="Trazado 75" d="M32.776,8.575a3.829,3.829,0,1,1,0-5.415,3.829,3.829,0,0,1,0,5.415" transform="translate(-11.092 -0.862)" fill="#f9564f"/>
      <path id="Trazado_76" data-name="Trazado 76" d="M27.334,8.576a3.848,3.848,0,1,1,5.443,0,3.853,3.853,0,0,1-5.443,0m5.415-5.415a3.81,3.81,0,1,0,0,5.388,3.814,3.814,0,0,0,0-5.388" transform="translate(-11.079 -0.849)" fill="#f9564f"/>
      <path id="Trazado_77" data-name="Trazado 77" d="M64.176,6.567a3.829,3.829,0,1,1,0-5.415,3.829,3.829,0,0,1,0,5.415" transform="translate(-24.366 -0.013)" fill="#f9564f"/>
      <path id="Trazado_78" data-name="Trazado 78" d="M58.735,6.568a3.848,3.848,0,1,1,5.443,0,3.853,3.853,0,0,1-5.443,0M64.15,1.153a3.81,3.81,0,1,0,0,5.388,3.814,3.814,0,0,0,0-5.388" transform="translate(-24.353 0)" fill="#f9564f"/>
      <path id="Trazado_79" data-name="Trazado 79" d="M88.868,32.247a3.829,3.829,0,1,1,0-5.415,3.829,3.829,0,0,1,0,5.415" transform="translate(-34.804 -10.868)" fill="#f9564f"/>
      <path id="Trazado_80" data-name="Trazado 80" d="M83.427,32.248a3.848,3.848,0,1,1,5.443,0,3.853,3.853,0,0,1-5.443,0m5.415-5.415a3.81,3.81,0,1,0,0,5.388,3.814,3.814,0,0,0,0-5.388" transform="translate(-34.791 -10.855)" fill="#f9564f"/>
      <path id="Trazado_81" data-name="Trazado 81" d="M89.358,60.695a3.829,3.829,0,1,1,0-5.415,3.829,3.829,0,0,1,0,5.415" transform="translate(-35.011 -22.894)" fill="#f9564f"/>
      <path id="Trazado_82" data-name="Trazado 82" d="M83.917,60.695a3.848,3.848,0,1,1,5.443,0,3.853,3.853,0,0,1-5.443,0m5.415-5.415a3.81,3.81,0,1,0,0,5.388,3.814,3.814,0,0,0,0-5.388" transform="translate(-34.998 -22.881)" fill="#f9564f"/>
      <path id="Trazado_83" data-name="Trazado 83" d="M61.8,89.282a3.829,3.829,0,1,1,0-5.415,3.829,3.829,0,0,1,0,5.415" transform="translate(-23.363 -34.979)" fill="#f9564f"/>
      <path id="Trazado_84" data-name="Trazado 84" d="M56.361,89.282a3.848,3.848,0,1,1,5.443,0,3.853,3.853,0,0,1-5.443,0m5.415-5.415a3.81,3.81,0,1,0,0,5.388,3.814,3.814,0,0,0,0-5.388" transform="translate(-23.35 -34.965)" fill="#f9564f"/>
      <path id="Trazado_85" data-name="Trazado 85" d="M32.183,88.1a3.829,3.829,0,1,1,0-5.415,3.829,3.829,0,0,1,0,5.415" transform="translate(-10.841 -34.478)" fill="#f9564f"/>
      <path id="Trazado_86" data-name="Trazado 86" d="M26.741,88.1a3.848,3.848,0,1,1,5.443,0,3.853,3.853,0,0,1-5.443,0m5.415-5.415a3.81,3.81,0,1,0,0,5.388,3.814,3.814,0,0,0,0-5.388" transform="translate(-10.828 -34.465)" fill="#f9564f"/>
      <path id="Trazado_87" data-name="Trazado 87" d="M6.567,62.481a3.829,3.829,0,1,1,0-5.415,3.829,3.829,0,0,1,0,5.415" transform="translate(-0.013 -23.649)" fill="#f9564f"/>
      <path id="Trazado_88" data-name="Trazado 88" d="M1.126,62.482a3.848,3.848,0,1,1,5.442,0,3.853,3.853,0,0,1-5.442,0m5.415-5.415a3.81,3.81,0,1,0,0,5.388,3.814,3.814,0,0,0,0-5.388" transform="translate(0 -23.636)" fill="#f9564f"/>
      <path id="Trazado_89" data-name="Trazado 89" d="M8.954,32.4a3.829,3.829,0,1,1,0-5.415,3.829,3.829,0,0,1,0,5.415" transform="translate(-1.022 -10.932)" fill="#f9564f"/>
      <path id="Trazado_90" data-name="Trazado 90" d="M3.512,32.4a3.848,3.848,0,1,1,5.443,0,3.853,3.853,0,0,1-5.443,0m5.415-5.415a3.81,3.81,0,1,0,0,5.388,3.814,3.814,0,0,0,0-5.388" transform="translate(-1.009 -10.919)" fill="#f9564f"/>
      <path id="Trazado_91" data-name="Trazado 91" d="M146.925,44.476a6.968,6.968,0,0,1-2.093,5.087,6.868,6.868,0,0,1-5.064,2.111H126.827a6.879,6.879,0,0,1-5.081-2.1,6.974,6.974,0,0,1-2.077-5.1V31.552a7.151,7.151,0,0,1,7.158-7.166h12.941a7.178,7.178,0,0,1,7.158,7.166Zm-6.678.009V31.575a.451.451,0,0,0-.509-.511H126.856a.451.451,0,0,0-.509.511V44.484a.451.451,0,0,0,.509.511h12.882a.451.451,0,0,0,.509-.511" transform="translate(-50.587 -10.309)" fill="#44cfcb"/>
      <path id="Trazado_92" data-name="Trazado 92" d="M205.659,36.3a7.5,7.5,0,0,1-7.541,7.56h-13v7.765h-6.678V24.275h19.683a7.521,7.521,0,0,1,7.541,7.528Zm-6.614-.035v-4.46q0-.854-.926-.854h-13v6.231h13a.815.815,0,0,0,.926-.917" transform="translate(-75.429 -10.262)" fill="#44cfcb"/>
      <path id="Trazado_93" data-name="Trazado 93" d="M261.322,51.563H236.591V44.884h8.883V30.953h-2.205v2.013h-6.678V24.275l24.54.032v6.646h-8.979V44.884h9.171Z" transform="translate(-100.013 -10.262)" fill="#44cfcb"/>
      <path id="Trazado_94" data-name="Trazado 94" d="M318.32,31.063H299.468q-.544,0-.543.507v3.04h19.331v6.678H298.924v3.706h14.41v6.678l-21.025-.032v-20.1a7.092,7.092,0,0,1,7.158-7.158H318.32Z" transform="translate(-123.568 -10.308)" fill="#44cfcb"/>
      <path id="Trazado_95" data-name="Trazado 95" d="M374.46,51.627h-3.355a13.142,13.142,0,0,1-6.678-1.6l-10.353-6v7.6H347.4V24.339h6.678v7.477l10.353-5.951a13.233,13.233,0,0,1,6.678-1.59h3.355v6.678h-3.035a9.585,9.585,0,0,0-4.825,1.381l-9.713,5.617,9.713,5.617a9.578,9.578,0,0,0,4.825,1.38h3.035Z" transform="translate(-146.854 -10.262)" fill="#44cfcb"/>
      <path id="Trazado_96" data-name="Trazado 96" d="M430.435,51.632h-6.678V46.52h-13.9v5.112h-6.678v-10.3a8.634,8.634,0,0,1,.895-4.127,18.082,18.082,0,0,1,2.764-3.343l4.106-4.175a34.935,34.935,0,0,1,5-4.463,10.022,10.022,0,0,1,4.713-.784h2.62a7.2,7.2,0,0,1,7.158,7.19Zm-6.678-11.791v-8.21a.453.453,0,0,0-.51-.513h-2.422a3.652,3.652,0,0,0-2.1.385q-.637.545-6.693,6.639a11.512,11.512,0,0,0-1.435,1.7Z" transform="translate(-170.435 -10.331)" fill="#44cfcb"/>
    </g>
  </g>
</svg>
